<?xml version="1.0" encoding="UTF-8" standalone="no"?>
<!-- Created with Inkscape (http://www.inkscape.org/) -->

<svg
   xmlns:osb="http://www.openswatchbook.org/uri/2009/osb"
   xmlns:dc="http://purl.org/dc/elements/1.1/"
   xmlns:cc="http://creativecommons.org/ns#"
   xmlns:rdf="http://www.w3.org/1999/02/22-rdf-syntax-ns#"
   xmlns:svg="http://www.w3.org/2000/svg"
   xmlns="http://www.w3.org/2000/svg"
   xmlns:sodipodi="http://sodipodi.sourceforge.net/DTD/sodipodi-0.dtd"
   xmlns:inkscape="http://www.inkscape.org/namespaces/inkscape"
   width="744.09448819"
   height="1052.3622047"
   id="svg2"
   version="1.1"
   inkscape:version="0.48.2 r9819"
   sodipodi:docname="outside_in_development.svg">
  <defs
     id="defs4">
    <marker
       inkscape:stockid="Arrow1Lend"
       orient="auto"
       refY="0.0"
       refX="0.0"
       id="Arrow1Lend"
       style="overflow:visible;">
      <path
         id="path4219"
         d="M 0.0,0.0 L 5.0,-5.0 L -12.5,0.0 L 5.0,5.0 L 0.0,0.0 z "
         style="fill-rule:evenodd;stroke:#000000;stroke-width:1.0pt;marker-start:none;"
         transform="scale(0.8) rotate(180) translate(12.5,0)" />
    </marker>
    <marker
       inkscape:stockid="Arrow1Lstart"
       orient="auto"
       refY="0.0"
       refX="0.0"
       id="Arrow1Lstart"
       style="overflow:visible">
      <path
         id="path4216"
         d="M 0.0,0.0 L 5.0,-5.0 L -12.5,0.0 L 5.0,5.0 L 0.0,0.0 z "
         style="fill-rule:evenodd;stroke:#000000;stroke-width:1.0pt;marker-start:none"
         transform="scale(0.8) translate(12.5,0)" />
    </marker>
    <linearGradient
       id="linearGradient3777"
       osb:paint="solid">
      <stop
         style="stop-color:#000000;stop-opacity:1;"
         offset="0"
         id="stop3779" />
    </linearGradient>
  </defs>
  <sodipodi:namedview
     id="base"
     pagecolor="#ffffff"
     bordercolor="#666666"
     borderopacity="1.0"
     inkscape:pageopacity="0.0"
     inkscape:pageshadow="2"
     inkscape:zoom="0.76399553"
     inkscape:cx="261.25786"
     inkscape:cy="748.4545"
     inkscape:document-units="px"
     inkscape:current-layer="layer1"
     showgrid="false"
     inkscape:window-width="1279"
     inkscape:window-height="1024"
     inkscape:window-x="334"
     inkscape:window-y="0"
     inkscape:window-maximized="0" />
  <metadata
     id="metadata7">
    <rdf:RDF>
      <cc:Work
         rdf:about="">
        <dc:format>image/svg+xml</dc:format>
        <dc:type
           rdf:resource="http://purl.org/dc/dcmitype/StillImage" />
        <dc:title></dc:title>
      </cc:Work>
    </rdf:RDF>
  </metadata>
  <g
     inkscape:label="Layer 1"
     inkscape:groupmode="layer"
     id="layer1">
    <g
       id="g4039"
       transform="translate(31.413797,23.560348)">
      <path
         transform="matrix(1.795717,0,0,1.795717,-635.55538,-226.08331)"
         style="fill:#ffaaaa;stroke:#000000;stroke-width:1.95928574;stroke-linecap:square;stroke-linejoin:miter;stroke-miterlimit:4;stroke-opacity:1;stroke-dashoffset:0"
         d="m 738.57146,329.14789 c 0,107.10379 -86.82478,193.92857 -193.92858,193.92857 -107.10379,0 -193.92857,-86.82478 -193.92857,-193.92857 0,-107.1038 86.82478,-193.92858 193.92857,-193.92858 107.1038,0 193.92858,86.82478 193.92858,193.92858 z"
         id="path4003"
         inkscape:connector-curvature="0" />
      <path
         transform="matrix(1.539186,0,0,1.539186,-494.00747,-136.07246)"
         style="fill:#ffb380;stroke:#000000;stroke-width:1.95928574;stroke-linecap:square;stroke-linejoin:miter;stroke-miterlimit:4;stroke-opacity:1;stroke-dashoffset:0"
         d="m 738.57146,329.14789 c 0,107.10379 -86.82478,193.92857 -193.92858,193.92857 -107.10379,0 -193.92857,-86.82478 -193.92857,-193.92857 0,-107.1038 86.82478,-193.92858 193.92857,-193.92858 107.1038,0 193.92858,86.82478 193.92858,193.92858 z"
         id="path3983"
         inkscape:connector-curvature="0" />
      <path
         transform="matrix(1.282655,0,0,1.282655,-354.28969,-45.433897)"
         style="fill:#ffeeaa;stroke:#000000;stroke-width:1.95928574;stroke-linecap:square;stroke-linejoin:miter;stroke-miterlimit:4;stroke-opacity:1;stroke-dashoffset:0"
         d="m 738.57146,329.14789 c 0,107.10379 -86.82478,193.92857 -193.92858,193.92857 -107.10379,0 -193.92857,-86.82478 -193.92857,-193.92857 0,-107.1038 86.82478,-193.92858 193.92857,-193.92858 107.1038,0 193.92858,86.82478 193.92858,193.92858 z"
         id="path2985"
         inkscape:connector-curvature="0" />
      <path
         transform="matrix(1.026124,0,0,1.026124,-214.5719,42.304666)"
         style="fill:#eeffaa;stroke:#000000;stroke-width:1.95928574;stroke-linecap:square;stroke-linejoin:miter;stroke-miterlimit:4;stroke-opacity:1;stroke-dashoffset:0"
         d="m 738.57146,329.14789 c 0,107.10379 -86.82478,193.92857 -193.92858,193.92857 -107.10379,0 -193.92857,-86.82478 -193.92857,-193.92857 0,-107.1038 86.82478,-193.92858 193.92857,-193.92858 107.1038,0 193.92858,86.82478 193.92858,193.92858 z"
         id="path3940"
         inkscape:connector-curvature="0" />
      <path
         transform="matrix(0.6413275,0,0,0.6413275,-4.9952278,155.23595)"
         style="fill:#d5f6ff;stroke:#000000;stroke-width:3.11853147;stroke-linecap:square;stroke-linejoin:miter;stroke-miterlimit:4;stroke-opacity:1;stroke-dashoffset:0"
         d="m 738.57146,329.14789 c 0,107.10379 -86.82478,193.92857 -193.92858,193.92857 -107.10379,0 -193.92857,-86.82478 -193.92857,-193.92857 0,-107.1038 86.82478,-193.92858 193.92857,-193.92858 107.1038,0 193.92858,86.82478 193.92858,193.92858 z"
         id="path3942"
         inkscape:connector-curvature="0" />
      <path
         transform="matrix(0.51306201,0,0,0.513062,64.863659,213.17794)"
         style="fill:none;stroke:none"
         d="m 738.57146,329.14789 c 0,107.10379 -86.82478,193.92857 -193.92858,193.92857 -107.10379,0 -193.92857,-86.82478 -193.92857,-193.92857 0,-107.1038 86.82478,-193.92858 193.92857,-193.92858 107.1038,0 193.92858,86.82478 193.92858,193.92858 z"
         id="path3944"
         inkscape:connector-curvature="0" />
      <path
         transform="matrix(0.38479651,0,0,0.3847965,134.72255,246.1304)"
         style="fill:#ffffff;stroke:#000000;stroke-width:5.1975522;stroke-linecap:square;stroke-linejoin:miter;stroke-miterlimit:4;stroke-opacity:1;stroke-dashoffset:0"
         d="m 738.57146,329.14789 c 0,107.10379 -86.82478,193.92857 -193.92858,193.92857 -107.10379,0 -193.92857,-86.82478 -193.92857,-193.92857 0,-107.1038 86.82478,-193.92858 193.92857,-193.92858 107.1038,0 193.92858,86.82478 193.92858,193.92858 z"
         id="path3946"
         inkscape:connector-curvature="0" />
      <g
         transform="matrix(-0.3133056,-0.94965236,0.94965236,-0.3133056,93.967807,804.40379)"
         style="font-size:40px;font-style:normal;font-weight:normal;line-height:125%;letter-spacing:0px;word-spacing:0px;fill:#000000;fill-opacity:1;stroke:none;font-family:Sans"
         id="text3948">
        <path
           d="m 650.52613,388.87791 c -1.47573,-0.0499 -2.75916,-0.2574 -3.85031,-0.62256 -1.08236,-0.35578 -1.97545,-0.91491 -2.67926,-1.67737 -0.66862,-0.72483 -1.14649,-1.56176 -1.43361,-2.51079 -0.28713,-0.94905 -0.40961,-2.04756 -0.36744,-3.29553 0.0431,-1.27533 0.24917,-2.38098 0.61823,-3.31696 0.36905,-0.93599 0.89245,-1.71629 1.57018,-2.34089 0.77189,-0.71262 1.69173,-1.21505 2.7595,-1.50728 1.06746,-0.28312 2.37093,-0.39868 3.91042,-0.34666 l 12.17469,0.41137 -0.0914,2.70549 -12.31133,-0.41599 c -1.10225,-0.0372 -1.97465,0.006 -2.61723,0.13044 -0.64289,0.13331 -1.22996,0.36883 -1.76119,0.70656 -0.60566,0.3808 -1.07033,0.90772 -1.39402,1.58078 -0.32401,0.68214 -0.50232,1.50602 -0.53495,2.47162 -0.0329,0.9747 0.0848,1.80857 0.35323,2.50164 0.27752,0.69335 0.70997,1.25515 1.29734,1.6854 0.50723,0.37279 1.09087,0.64331 1.75093,0.81154 0.66886,0.17762 1.49975,0.28321 2.49268,0.31678 l 12.37966,0.41829 -0.0914,2.70549 -12.17469,-0.41137"
           style="font-size:28px"
           id="path4068"
           inkscape:connector-curvature="0" />
        <path
           d="m 645.33642,404.83442 c -1.38863,-0.12814 -2.4745,-0.80957 -3.25759,-2.04428 -0.78393,-1.22566 -1.0842,-2.8323 -0.9008,-4.81995 0.10384,-1.12543 0.33091,-2.14795 0.68121,-3.06757 0.35853,-0.90971 0.72594,-1.66757 1.10222,-2.27358 l 2.87257,0.26505 -0.0126,0.13614 c -0.68263,0.75166 -1.25111,1.60538 -1.70543,2.56117 -0.44524,0.95662 -0.70974,1.88874 -0.79348,2.79635 -0.10384,1.12542 -0.004,2.02254 0.30087,2.69137 0.30442,0.66881 0.8469,1.03923 1.62744,1.11126 0.59901,0.0553 1.06872,-0.0753 1.40914,-0.39172 0.3404,-0.31643 0.66474,-0.95469 0.97301,-1.91479 0.11518,-0.35552 0.25444,-0.82322 0.41779,-1.4031 0.1625,-0.57082 0.32948,-1.09088 0.50094,-1.56018 0.47706,-1.30152 1.0819,-2.20224 1.81453,-2.70214 0.74086,-0.48999 1.61047,-0.68893 2.60884,-0.59681 0.62624,0.0578 1.20445,0.23928 1.73465,0.54449 0.52934,0.31429 0.98756,0.75474 1.37465,1.32135 0.37966,0.54761 0.65602,1.22299 0.82907,2.02615 0.18125,0.81305 0.22709,1.70515 0.13749,2.67629 -0.0838,0.9076 -0.28179,1.81381 -0.59409,2.71864 -0.30409,0.91472 -0.64344,1.66601 -1.01803,2.25389 l -2.73642,-0.25249 0.0126,-0.13614 c 0.54131,-0.6091 1.01847,-1.36599 1.43147,-2.27066 0.42206,-0.90386 0.67455,-1.80504 0.75747,-2.70356 0.0862,-0.93484 -0.0224,-1.7412 -0.32599,-2.41909 -0.29452,-0.67707 -0.79574,-1.04825 -1.50366,-1.11357 -0.62626,-0.0578 -1.11621,0.0938 -1.46988,0.45476 -0.35284,0.35188 -0.66845,0.94518 -0.94683,1.77991 -0.15247,0.4619 -0.30995,0.97826 -0.47245,1.54909 -0.16336,0.57988 -0.30842,1.06077 -0.43518,1.44268 -0.38199,1.16382 -0.93399,2.03737 -1.65599,2.62065 -0.73109,0.58241 -1.65027,0.82254 -2.75754,0.72039"
           style="font-size:28px"
           id="path4070"
           inkscape:connector-curvature="0" />
        <path
           d="m 645.96345,421.80696 1.61822,-11.13498 c -0.92905,-0.13502 -1.76115,-0.11319 -2.49631,0.0655 -0.72615,0.17999 -1.3456,0.4814 -1.85835,0.90425 -0.50112,0.4061 -0.90645,0.91363 -1.21599,1.52259 -0.31085,0.61796 -0.52265,1.31479 -0.63538,2.09051 -0.14943,1.02825 -0.0966,2.09051 0.15857,3.18679 0.26286,1.10659 0.5606,1.90971 0.89325,2.40937 l -0.0197,0.1353 -2.7736,-0.40308 c -0.23627,-0.90933 -0.41128,-1.82817 -0.52504,-2.75651 -0.11377,-0.92837 -0.0992,-1.88413 0.0437,-2.86728 0.36441,-2.50752 1.32535,-4.36651 2.88281,-5.57697 1.56648,-1.20916 3.59897,-1.63219 6.09747,-1.26909 2.47142,0.35916 4.33558,1.31625 5.59247,2.87125 1.25555,1.56401 1.72341,3.44644 1.40359,5.64728 -0.29626,2.03847 -1.11966,3.52141 -2.47018,4.44881 -1.35186,0.93639 -3.12369,1.24533 -5.3155,0.92682 l -1.38004,-0.20056 m 2.30811,-2.1928 c 1.33623,0.18497 2.41816,-0.003 3.24578,-0.56446 0.82628,-0.55229 1.33774,-1.50491 1.53438,-2.85787 0.19792,-1.36201 -0.0455,-2.50723 -0.73028,-3.43567 -0.68612,-0.91943 -1.61661,-1.51978 -2.79149,-1.80104 l -1.25839,8.65904"
           style="font-size:28px"
           id="path4072"
           inkscape:connector-curvature="0" />
        <path
           d="m 648.35034,436.31446 0.0262,-0.13419 c 0.16267,-0.35832 0.29678,-0.71292 0.40231,-1.06378 0.11271,-0.3402 0.21615,-0.75185 0.3103,-1.23494 0.15167,-0.77833 0.12366,-1.56382 -0.084,-2.35645 -0.19875,-0.79091 -0.50561,-1.57502 -0.92057,-2.35233 l -10.64161,-2.07378 0.49164,-2.52286 14.98951,2.92108 -0.49164,2.52286 -2.21421,-0.4315 c 0.6099,1.15889 1.00626,2.1508 1.1891,2.97575 0.19001,0.83562 0.20744,1.65155 0.0523,2.44778 -0.0854,0.43835 -0.16075,0.75333 -0.22593,0.94493 -0.0563,0.19332 -0.15405,0.4807 -0.29337,0.86215 l -2.58995,-0.50472"
           style="font-size:28px"
           id="path4074"
           inkscape:connector-curvature="0" />
        <path
           d="m 634.75568,461.91274 c -0.7625,-0.21774 -1.46492,-0.61263 -2.10728,-1.18466 -0.64487,-0.56331 -1.1345,-1.23867 -1.46891,-2.0261 -0.36071,-0.86132 -0.56494,-1.80591 -0.61268,-2.83377 -0.0502,-1.01912 0.11233,-2.18599 0.4877,-3.50063 0.40292,-1.41105 0.89725,-2.64434 1.48301,-3.69985 0.58325,-1.04676 1.29984,-2.07913 2.14978,-3.09713 l 3.26031,0.93095 -0.0526,0.18405 c -1.10663,0.75512 -2.06863,1.71742 -2.88598,2.88691 -0.81736,1.16948 -1.3887,2.3239 -1.71403,3.46327 -0.46047,1.61262 -0.51596,2.95225 -0.16649,4.0189 0.34698,1.07538 1.02441,1.75698 2.0323,2.04478 0.86767,0.24774 1.56877,0.2157 2.10332,-0.0961 0.53204,-0.30309 1.03588,-0.85592 1.5115,-1.6585 0.36298,-0.60729 0.71154,-1.28028 1.04571,-2.019 0.33165,-0.72997 0.70775,-1.49937 1.12829,-2.30821 0.8636,-1.63024 1.85812,-2.73965 2.98356,-3.32826 1.13169,-0.57736 2.41183,-0.66207 3.84042,-0.25415 1.63891,0.46797 2.78215,1.54324 3.42971,3.2258 0.6563,1.68506 0.68039,3.59245 0.0723,5.72219 -0.39291,1.37598 -0.88474,2.60049 -1.47549,3.67356 -0.59078,1.07303 -1.20535,1.99709 -1.84372,2.77219 l -3.07627,-0.87839 0.0525,-0.18405 c 0.84374,-0.5648 1.6455,-1.3975 2.40529,-2.4981 0.76602,-1.08937 1.33047,-2.26945 1.69336,-3.54026 0.39788,-1.39354 0.42899,-2.59795 0.0933,-3.61324 -0.33822,-1.00655 -0.96306,-1.63996 -1.87453,-1.90021 -0.81509,-0.23275 -1.51495,-0.20509 -2.09957,0.083 -0.58464,0.28804 -1.15105,0.92727 -1.69925,1.91769 -0.28288,0.52587 -0.6596,1.28087 -1.13018,2.26502 -0.47059,0.98412 -0.90051,1.80925 -1.28977,2.47538 -0.80105,1.34475 -1.6967,2.27387 -2.68693,2.78736 -0.99024,0.51345 -2.1865,0.56999 -3.58878,0.1696"
           style="font-size:28px"
           id="path4076"
           inkscape:connector-curvature="0" />
        <path
           d="m 625.37518,471.78286 c 0.0354,-0.49839 0.10704,-1.03254 0.215,-1.60245 0.10501,-0.5613 0.22969,-1.05326 0.37403,-1.4759 0.50373,-1.47495 1.28345,-2.46075 2.33916,-2.9574 1.05572,-0.49665 2.45905,-0.44598 4.21002,0.15202 l 7.68525,2.6247 0.56117,-1.64314 2.04423,0.69815 -0.56117,1.64314 4.15314,1.4184 -0.83072,2.43237 -4.15314,-1.4184 -1.71445,5.02 -2.04422,-0.69815 1.71445,-5.02 -6.58551,-2.24911 c -0.75905,-0.25924 -1.36009,-0.44524 -1.80314,-0.55803 -0.43443,-0.10984 -0.87244,-0.1246 -1.31403,-0.0443 -0.40983,0.0719 -0.75265,0.24379 -1.02848,0.51559 -0.27014,0.28336 -0.52157,0.76575 -0.75429,1.44716 -0.1355,0.39676 -0.22083,0.82993 -0.25599,1.29951 -0.0265,0.4725 -0.0334,0.81689 -0.0206,1.03317 l -0.0442,0.12938 -2.18655,-0.74676"
           style="font-size:28px"
           id="path4078"
           inkscape:connector-curvature="0" />
        <path
           d="m 626.50117,489.58269 c -2.31404,-0.91475 -3.90615,-2.23017 -4.77632,-3.94625 -0.87017,-1.71611 -0.91155,-3.57012 -0.12414,-5.56206 0.79411,-2.0089 2.09534,-3.34199 3.9037,-3.99927 1.805,-0.64881 3.86453,-0.51585 6.17858,0.39889 2.31403,0.91473 3.90781,2.2259 4.78135,3.93353 0.87863,1.71944 0.9209,3.58361 0.1268,5.59252 -0.78742,1.99192 -2.08954,3.31486 -3.90636,3.96881 -1.80837,0.65727 -3.86957,0.52854 -6.18361,-0.38617 m 0.97505,-2.46662 c 1.83936,0.72708 3.34646,0.90629 4.52129,0.53764 1.18329,-0.36534 2.02792,-1.18796 2.53388,-2.46788 0.51264,-1.29689 0.46212,-2.48316 -0.15155,-3.55881 -0.60857,-1.06385 -1.83254,-1.95931 -3.6719,-2.6864 -1.78004,-0.70365 -3.27442,-0.87783 -4.48315,-0.52256 -1.20025,0.35861 -2.05503,1.18212 -2.56433,2.47053 -0.5026,1.27145 -0.44282,2.44668 0.17934,3.5257 0.62729,1.09083 1.83943,1.99142 3.63642,2.70178"
           style="font-size:28px"
           id="path4080"
           inkscape:connector-curvature="0" />
        <path
           d="m 625.19357,504.24611 0.0564,-0.12454 c 0.24097,-0.31112 0.45327,-0.6252 0.63691,-0.94225 0.18817,-0.30501 0.38379,-0.68168 0.58687,-1.13001 0.32717,-0.72234 0.48115,-1.49309 0.46197,-2.31225 -0.0109,-0.81543 -0.12855,-1.64918 -0.35296,-2.50127 l -9.87597,-4.47322 1.06049,-2.34134 13.91104,6.30087 -1.06049,2.34134 -2.0549,-0.93074 c 0.32604,1.26833 0.48284,2.32494 0.4704,3.16982 -0.008,0.85691 -0.17923,1.65484 -0.51391,2.39379 -0.18428,0.40681 -0.33023,0.69591 -0.43786,0.8673 -0.0994,0.17512 -0.26081,0.43219 -0.48439,0.7712 l -2.40361,-1.0887"
           style="font-size:28px"
           id="path4082"
           inkscape:connector-curvature="0" />
        <path
           d="m 627.4846,511.64421 1.2822,-2.59941 2.39096,1.17938 -1.2822,2.59941 -2.39096,-1.17938 m -15.91622,-8.03388 1.13705,-2.30513 13.69592,6.75574 -1.13705,2.30513 -13.69592,-6.75574"
           style="font-size:28px"
           id="path4084"
           inkscape:connector-curvature="0" />
        <path
           d="m 609.69709,522.84549 5.385,-9.87969 c -0.82431,-0.4493 -1.61219,-0.71784 -2.36364,-0.80563 -0.74345,-0.0834 -1.42903,-0.0159 -2.05673,0.20249 -0.61097,0.20677 -1.16734,0.54192 -1.66912,1.00545 -0.50615,0.47151 -0.94679,1.0514 -1.32193,1.73967 -0.49727,0.91233 -0.81667,1.92682 -0.95818,3.04347 -0.13786,1.12899 -0.1376,1.98552 7.9e-4,2.56962 l -0.0654,0.12004 -2.46092,-1.34134 c 0.0943,-0.93478 0.24931,-1.8572 0.46507,-2.76726 0.21577,-0.91008 0.56139,-1.80128 1.03685,-2.6736 1.21267,-2.22483 2.75946,-3.63432 4.6404,-4.22847 1.88893,-0.58979 3.94181,-0.28054 6.15864,0.92777 2.19281,1.1952 3.60848,2.74018 4.24702,4.63493 0.63416,1.90273 0.41907,3.83047 -0.64527,5.78321 -0.98585,1.80866 -2.27305,2.91328 -3.86161,3.31386 -1.59293,0.40855 -3.36176,0.0829 -5.30648,-0.97712 l -1.22446,-0.6674 m 2.92604,-1.25461 c 1.1888,0.63757 2.26872,0.83692 3.23976,0.59804 0.96667,-0.2309 1.77716,-0.94657 2.43148,-2.147 0.65867,-1.20847 0.82817,-2.36694 0.5085,-3.47542 -0.32405,-1.1005 -0.98809,-1.98666 -1.99213,-2.65849 l -4.18761,7.68287"
           style="font-size:28px"
           id="path4086"
           inkscape:connector-curvature="0" />
        <path
           d="m 599.25467,534.26209 c -1.18777,-0.73069 -1.85881,-1.82301 -2.0131,-3.27695 -0.15906,-1.4462 0.28434,-3.01937 1.33021,-4.71952 0.59219,-0.96265 1.24918,-1.77842 1.97099,-2.4473 0.72479,-0.65635 1.39019,-1.17266 1.9962,-1.54894 l 2.45708,1.5115 -0.0716,0.11645 c -0.94518,0.37096 -1.83331,0.88403 -2.66439,1.5392 -0.82331,0.65994 -1.47375,1.37808 -1.95132,2.15441 -0.59219,0.96264 -0.90016,1.81119 -0.92393,2.54566 -0.0238,0.73444 0.29817,1.30702 0.96581,1.71774 0.51238,0.31519 0.99128,0.40647 1.43671,0.27385 0.44542,-0.13264 1.01918,-0.56087 1.72128,-1.28467 0.26089,-0.26756 0.59313,-0.62499 0.99671,-1.07229 0.3988,-0.43955 0.7791,-0.83161 1.1409,-1.1762 1.00479,-0.95496 1.94635,-1.49401 2.8247,-1.61715 0.88132,-0.11061 1.74896,0.0967 2.60293,0.62208 0.53565,0.32951 0.97341,0.74862 1.31326,1.25731 0.33505,0.51645 0.55041,1.11442 0.64607,1.79394 0.0974,0.65919 0.0456,1.38708 -0.1555,2.18368 -0.19812,0.80911 -0.55268,1.629 -1.06367,2.45969 -0.47757,0.77631 -1.05696,1.5007 -1.73815,2.17318 -0.67822,0.68499 -1.31556,1.20786 -1.91201,1.56864 l -2.34063,-1.43987 0.0716,-0.11645 c 0.7553,-0.30586 1.51864,-0.77263 2.29002,-1.40031 0.77913,-0.62293 1.40509,-1.31867 1.87789,-2.08722 0.49189,-0.79963 0.75211,-1.57055 0.78066,-2.31276 0.0363,-0.73745 -0.24832,-1.29243 -0.85385,-1.66492 -0.53567,-0.32953 -1.04204,-0.41096 -1.5191,-0.24427 -0.4723,0.1589 -1.0183,0.55069 -1.638,1.17538 -0.3415,0.34638 -0.71165,0.73934 -1.11045,1.17889 -0.40358,0.44729 -0.74686,0.81398 -1.02984,1.10005 -0.85852,0.87371 -1.74067,1.41185 -2.64646,1.61443 -0.91356,0.19778 -1.84389,0.005 -2.79102,-0.57726"
           style="font-size:28px"
           id="path4088"
           inkscape:connector-curvature="0" />
      </g>
      <g
         transform="matrix(-0.52213108,-0.85286525,0.85286525,-0.52213108,192.54179,851.73846)"
         style="font-size:40px;font-style:normal;font-weight:normal;line-height:125%;letter-spacing:0px;word-spacing:0px;fill:#000000;fill-opacity:1;stroke:none;font-family:Sans"
         id="text3955">
        <path
           d="m 592.51337,395.52561 0.10916,-2.8827 5.74529,-1.77997 0.33316,-8.79838 -5.59423,-2.20936 0.10398,-2.74608 20.06245,8.17516 -0.13658,3.60679 -20.62323,6.63454 m 8.20856,-5.40811 10.12201,-3.18764 -9.85144,-3.95763 -0.27057,7.14527"
           style="font-size:28px"
           id="path4091"
           inkscape:connector-curvature="0" />
        <path
           d="m 591.92663,409.72845 c -0.31802,-0.89509 -0.54969,-1.73981 -0.69503,-2.53416 -0.14629,-0.78532 -0.17402,-1.60852 -0.0832,-2.46962 0.1157,-1.09679 0.38046,-2.08619 0.79428,-2.96821 0.42288,-0.88108 0.99506,-1.61351 1.71653,-2.19729 0.72242,-0.59286 1.6013,-1.01798 2.63662,-1.27537 1.03531,-0.2574 2.21919,-0.31582 3.55165,-0.17527 2.48361,0.26198 4.36072,1.14737 5.63134,2.65618 1.26964,1.51786 1.78638,3.39623 1.55023,5.63512 -0.0918,0.87016 -0.30405,1.70929 -0.63674,2.51741 -0.33367,0.81715 -0.71406,1.55606 -1.14118,2.21673 l -2.84166,-0.29975 0.0143,-0.13596 c 0.68952,-0.71548 1.24143,-1.47296 1.65572,-2.27244 0.41331,-0.79045 0.66156,-1.57996 0.74476,-2.36854 0.15297,-1.45029 -0.21555,-2.64856 -1.10556,-3.59479 -0.88192,-0.93623 -2.26557,-1.50378 -4.15093,-1.70265 -1.83099,-0.19315 -3.28352,0.0661 -4.35757,0.77764 -1.06596,0.72158 -1.67734,1.82564 -1.83414,3.3122 -0.0545,0.51665 -0.042,1.04955 0.0376,1.5987 0.0796,0.54912 0.20563,1.04817 0.37823,1.49715 0.15115,0.3917 0.31375,0.76171 0.48781,1.11003 0.18312,0.34925 0.34169,0.62719 0.4757,0.8338 l -0.0143,0.13597 -2.81446,-0.29688"
           style="font-size:28px"
           id="path4093"
           inkscape:connector-curvature="0" />
        <path
           d="m 589.58357,424.20045 c -0.26496,-0.91219 -0.44668,-1.76905 -0.54517,-2.57056 -0.1,-0.79255 -0.0793,-1.61596 0.0618,-2.47025 0.17984,-1.08811 0.50218,-2.06028 0.96703,-2.9165 0.47385,-0.85475 1.08801,-1.55235 1.84249,-2.09281 0.75596,-0.54945 1.65826,-0.92228 2.70689,-1.11849 1.04863,-0.19622 2.23391,-0.18509 3.55582,0.0334 2.46396,0.40723 4.2859,1.40122 5.46582,2.98197 1.1784,1.58973 1.58406,3.49518 1.21697,5.71636 -0.1427,0.86328 -0.4038,1.68852 -0.78333,2.47572 -0.38103,0.79617 -0.80412,1.51149 -1.26926,2.14597 l -2.81917,-0.46594 0.0223,-0.13489 c 0.73031,-0.6738 1.32571,-1.3976 1.78619,-2.1714 0.45897,-0.76483 0.75311,-1.53842 0.88243,-2.32076 0.23778,-1.43882 -0.0598,-2.65664 -0.89277,-3.65346 -0.82548,-0.98635 -2.17345,-1.6341 -4.0439,-1.94323 -1.8165,-0.30023 -3.28173,-0.12668 -4.39568,0.52066 -1.10645,0.6578 -1.78155,1.7241 -2.0253,3.19889 -0.0847,0.51257 -0.10347,1.04529 -0.0563,1.59815 0.0472,0.55285 0.14378,1.05844 0.28975,1.51677 0.12791,0.39989 0.26852,0.77881 0.42185,1.13674 0.16232,0.35939 0.30431,0.64614 0.42597,0.86027 l -0.0223,0.13489 -2.7922,-0.46149"
           style="font-size:28px"
           id="path4095"
           inkscape:connector-curvature="0" />
        <path
           d="m 592.27811,441.4029 2.53212,-10.96334 c -0.91473,-0.21127 -1.74579,-0.25822 -2.49319,-0.14085 -0.73853,0.11942 -1.38075,0.36865 -1.92667,0.74772 -0.53294,0.36334 -0.97879,0.83567 -1.33756,1.41698 -0.36082,0.59018 -0.62943,1.26715 -0.80583,2.03091 -0.23382,1.0124 -0.26886,2.0754 -0.1051,3.189 0.17058,1.12451 0.401,1.94948 0.69125,2.4749 l -0.0308,0.13321 -2.73084,-0.63072 c -0.16037,-0.92573 -0.25892,-1.85588 -0.29564,-2.79045 -0.0367,-0.93459 0.0567,-1.88588 0.28028,-2.85388 0.57021,-2.46886 1.68136,-4.24216 3.33346,-5.31989 1.66097,-1.07569 3.72145,-1.32945 6.18143,-0.76128 2.43333,0.562 4.21209,1.66974 5.33629,3.32322 1.12213,1.66234 1.43296,3.57697 0.9325,5.74389 -0.46357,2.00705 -1.4066,3.41693 -2.82909,4.22966 -1.42456,0.82157 -3.21585,0.98315 -5.37388,0.48474 l -1.35876,-0.31382 m 2.48129,-1.99473 c 1.3164,0.29467 2.41017,0.19649 3.2813,-0.29453 0.86907,-0.48217 1.45744,-1.38931 1.76512,-2.72142 0.30971,-1.34101 0.16168,-2.50241 -0.4441,-3.48423 -0.60785,-0.97295 -1.4856,-1.64807 -2.63324,-2.02539 l -1.96908,8.52557"
           style="font-size:28px"
           id="path4097"
           inkscape:connector-curvature="0" />
        <path
           d="m 587.62219,458.64248 c -1.18565,-0.36171 -2.21917,-0.86281 -3.10058,-1.50331 -0.8727,-0.63787 -1.55464,-1.37 -2.04582,-2.1964 -0.4696,-0.7722 -0.76345,-1.60512 -0.88154,-2.49876 -0.11202,-0.88229 -0.0351,-1.75932 0.23087,-2.63111 0.23138,-0.75847 0.5243,-1.42193 0.87875,-1.99037 0.35181,-0.55973 0.79914,-1.10461 1.342,-1.63464 l -6.12002,-1.86693 0.74996,-2.45847 19.99467,6.09943 -0.74997,2.45847 -1.53,-0.46673 c 0.34976,0.82138 0.58406,1.69331 0.7029,2.61579 0.12487,0.93383 0.0464,1.86281 -0.23552,2.78692 -0.53722,1.76102 -1.62168,2.92629 -3.25337,3.49583 -1.62566,0.58087 -3.61977,0.51097 -5.98233,-0.20972 m 0.70851,-2.55688 c 1.76103,0.53719 3.16919,0.638 4.2245,0.30242 1.05528,-0.33561 1.77308,-1.12674 2.15339,-2.3734 0.21541,-0.70617 0.27959,-1.46322 0.19254,-2.27116 -0.0871,-0.80797 -0.27932,-1.61466 -0.57678,-2.42009 l -8.27771,-2.52514 c -0.5266,0.60169 -0.92237,1.13372 -1.18729,1.59607 -0.26758,0.47107 -0.49844,1.02481 -0.69258,1.66123 -0.41753,1.36871 -0.28126,2.57761 0.40882,3.6267 0.69007,1.04907 1.94177,1.85019 3.75511,2.40337"
           style="font-size:28px"
           id="path4099"
           inkscape:connector-curvature="0" />
        <path
           d="m 576.12709,467.60585 c 0.0477,-0.49737 0.13251,-1.02959 0.2545,-1.59665 0.11885,-0.55853 0.25564,-1.04727 0.41037,-1.46622 0.54001,-1.46206 1.34384,-2.4283 2.4115,-2.89872 1.06766,-0.47043 2.46931,-0.38511 4.20497,0.25595 l 7.61809,2.81371 0.60158,-1.62878 2.02636,0.74843 -0.60158,1.62878 4.11684,1.52054 -0.89053,2.41111 -4.11685,-1.52054 -1.83791,4.97612 -2.02636,-0.74842 1.83791,-4.97613 -6.52795,-2.41107 c -0.75241,-0.2779 -1.34868,-0.4787 -1.78881,-0.60239 -0.43158,-0.12055 -0.86909,-0.14611 -1.31253,-0.0767 -0.41148,0.0618 -0.75844,0.22512 -1.0409,0.49002 -0.27706,0.27661 -0.54032,0.75264 -0.7898,1.4281 -0.14526,0.39329 -0.24127,0.82422 -0.28801,1.29278 -0.0382,0.47171 -0.0536,0.81582 -0.0461,1.03235 l -0.0474,0.12826 -2.16744,-0.80054"
           style="font-size:28px"
           id="path4101"
           inkscape:connector-curvature="0" />
        <path
           d="m 570.12776,481.34574 1.01967,-2.34451 1.49195,0.64888 c -0.0512,-0.27077 -0.12821,-0.64219 -0.23101,-1.11428 -0.0981,-0.46011 -0.14962,-0.89005 -0.15467,-1.2898 -0.0214,-0.47646 0.0161,-0.99688 0.11247,-1.56125 0.088,-0.56803 0.28107,-1.19473 0.57915,-1.8801 0.54891,-1.26211 1.43213,-2.15021 2.64965,-2.66431 1.21752,-0.51411 2.47405,-0.48944 3.76959,0.074 1.0615,0.46167 1.82007,1.05994 2.27573,1.79484 0.46036,0.74688 0.69503,1.62421 0.70401,2.63198 0.005,1.01612 -0.18505,2.15089 -0.57114,3.4043 -0.3861,1.25338 -0.8438,2.58 -1.37309,3.97986 l 0.36358,0.15813 c 0.53493,0.23264 1.01972,0.32918 1.45439,0.28963 0.43101,-0.0312 0.82316,-0.17873 1.17644,-0.44252 0.33764,-0.25073 0.64169,-0.59559 0.91213,-1.03456 0.27043,-0.43899 0.51652,-0.91341 0.73827,-1.42326 0.26899,-0.61852 0.48531,-1.34443 0.64895,-2.17773 0.17199,-0.82968 0.27966,-1.71715 0.32302,-2.6624 l 0.0545,-0.12537 2.39465,1.04147 c -0.0746,0.51423 -0.22565,1.23869 -0.45325,2.1734 -0.22762,0.93468 -0.525,1.82413 -0.89214,2.66833 -0.42896,0.98626 -0.88514,1.80664 -1.36856,2.46112 -0.47871,0.66645 -1.03081,1.18172 -1.65629,1.54581 -0.6135,0.35934 -1.28531,0.54425 -2.01542,0.55472 -0.73012,0.0104 -1.54653,-0.18063 -2.44922,-0.57321 l -9.50339,-4.13318 m 4.46747,-0.845 3.89914,1.6958 c 0.27083,-0.737 0.57712,-1.61263 0.91885,-2.62689 0.33809,-1.00593 0.55133,-1.8276 0.63972,-2.46502 0.1022,-0.76064 0.0394,-1.43898 -0.18839,-2.03501 -0.21944,-0.59241 -0.68439,-1.0431 -1.39484,-1.35208 -0.8024,-0.34899 -1.5138,-0.37014 -2.13419,-0.0635 -0.61204,0.31029 -1.13435,0.96275 -1.56693,1.9574 -0.35988,0.82746 -0.53006,1.65295 -0.51053,2.47648 0.0279,0.82714 0.14028,1.63141 0.33717,2.4128"
           style="font-size:28px"
           id="path4103"
           inkscape:connector-curvature="0" />
        <path
           d="m 562.09709,497.17244 1.18697,-2.27983 7.7126,4.01551 c 0.6225,0.32409 1.22352,0.59076 1.80307,0.80003 0.58762,0.21345 1.08555,0.30313 1.49378,0.26907 0.44478,-0.0253 0.84692,-0.1859 1.20645,-0.48167 0.36759,-0.2916 0.70924,-0.74056 1.02493,-1.34688 0.32409,-0.62252 0.50932,-1.35329 0.55569,-2.19232 0.0463,-0.83906 -0.007,-1.694 -0.15979,-2.56483 l -10.11369,-5.26562 1.18698,-2.27983 13.54555,7.0524 -1.18698,2.27982 -1.50371,-0.78289 c 0.21975,1.01869 0.29754,1.99429 0.23335,2.92682 -0.0642,0.9325 -0.30465,1.79894 -0.72134,2.59932 -0.76186,1.46327 -1.78333,2.34953 -3.0644,2.65878 -1.28108,0.30922 -2.75027,0.0324 -4.40759,-0.83046 l -8.79187,-4.57742"
           style="font-size:28px"
           id="path4105"
           inkscape:connector-curvature="0" />
        <path
           d="m 554.58371,511.61411 c 0.0935,-0.94528 0.24372,-1.80822 0.45058,-2.58882 0.20214,-0.77283 0.52769,-1.52943 0.97665,-2.26982 0.57184,-0.94304 1.23281,-1.72543 1.9829,-2.34718 0.75789,-0.61703 1.58754,-1.03598 2.48895,-1.25685 0.90614,-0.22868 1.88238,-0.23896 2.92872,-0.0308 1.04634,0.2081 2.14234,0.65951 3.28801,1.35423 2.13546,1.2949 3.45665,2.89549 3.96358,4.8018 0.50219,1.91407 0.16963,3.83363 -0.99766,5.75868 -0.4537,0.74818 -1.00315,1.41698 -1.64836,2.00642 -0.64995,0.59719 -1.30884,1.10369 -1.97669,1.51951 l -2.44331,-1.48158 0.0709,-0.1169 c 0.9286,-0.35364 1.75058,-0.80389 2.46595,-1.35075 0.71062,-0.53911 1.27151,-1.14768 1.68268,-1.82571 0.75614,-1.247 0.93311,-2.4881 0.53091,-3.7233 -0.39914,-1.2227 -1.40925,-2.32554 -3.03032,-3.30853 -1.57433,-0.95464 -2.99891,-1.33881 -4.27375,-1.1525 -1.27177,0.19882 -2.29519,0.93731 -3.07024,2.21548 -0.26938,0.44423 -0.48503,0.9317 -0.64695,1.46243 -0.16193,0.5307 -0.26042,1.03592 -0.2955,1.51566 -0.0301,0.41877 -0.0406,0.82279 -0.0315,1.21208 0.0169,0.39398 0.042,0.71298 0.0752,0.957 l -0.0709,0.1169 -2.41993,-1.4674"
           style="font-size:28px"
           id="path4107"
           inkscape:connector-curvature="0" />
        <path
           d="m 550.68888,528.58432 6.42648,-9.23617 c -0.77062,-0.5362 -1.52466,-0.88875 -2.26213,-1.05765 -0.72998,-0.16371 -1.41883,-0.17109 -2.06655,-0.0222 -0.62982,0.13917 -1.21931,0.41189 -1.76848,0.81816 -0.55437,0.41374 -1.0554,0.94232 -1.5031,1.58576 -0.59345,0.8529 -1.02117,1.82669 -1.28316,2.92135 -0.2597,1.10733 -0.3525,1.95883 -0.27839,2.5545 l -0.0781,0.11222 -2.30063,-1.60076 c 0.19529,-0.91901 0.44961,-1.81912 0.76296,-2.70035 0.31337,-0.88126 0.75376,-1.72963 1.32118,-2.54513 1.4472,-2.07992 3.13797,-3.31302 5.07232,-3.6993 1.94183,-0.38108 3.94896,0.14937 6.0214,1.59137 2.04998,1.42636 3.28942,3.11599 3.71833,5.0689 0.42368,1.96037 4.3e-4,3.85332 -1.26976,5.67887 -1.1765,1.69085 -2.57609,2.64909 -4.19877,2.87472 -1.6279,0.23307 -3.35087,-0.28288 -5.16892,-1.54785 l -1.1447,-0.79648 m 3.04502,-0.92929 c 1.1125,0.76295 2.16437,1.07844 3.15561,0.94648 0.98604,-0.12452 1.86948,-0.7479 2.65035,-1.87013 0.78606,-1.12976 1.08041,-2.26296 0.88307,-3.39961 -0.20257,-1.12919 -0.76641,-2.08225 -1.69152,-2.85918 l -4.99751,7.18244"
           style="font-size:28px"
           id="path4109"
           inkscape:connector-curvature="0" />
        <path
           d="m 526.78979,548.16205 c 0.16604,-0.52115 0.3123,-0.99902 0.43878,-1.43359 0.1205,-0.42774 0.31826,-0.95743 0.59328,-1.58905 0.23636,-0.53223 0.52632,-1.08411 0.86987,-1.65565 0.33072,-0.57071 0.75446,-1.15075 1.27124,-1.74011 0.97349,-1.11022 2.01403,-1.98585 3.12163,-2.62691 1.10846,-0.6282 2.28951,-0.98666 3.54316,-1.07538 1.22793,-0.087 2.50442,0.12307 3.82948,0.63034 1.3319,0.51327 2.66261,1.35279 3.99213,2.51857 1.26097,1.10567 2.23208,2.27236 2.91332,3.50006 0.68123,1.22767 1.07006,2.47778 1.16649,3.75032 0.0939,1.23392 -0.087,2.46328 -0.54274,3.68809 -0.46173,1.23162 -1.18534,2.4094 -2.17083,3.53334 -0.72111,0.82236 -1.53857,1.55418 -2.45239,2.19546 -0.91984,0.64809 -2.06857,1.2531 -3.44618,1.81502 l -2.41574,-2.11822 0.1352,-0.1542 c 1.445,-0.22402 2.6921,-0.60942 3.74131,-1.1562 1.0492,-0.54683 1.98843,-1.2931 2.8177,-2.23881 0.67903,-0.77443 1.16517,-1.58462 1.45845,-2.43058 0.2941,-0.83313 0.39063,-1.72432 0.28959,-2.67359 -0.0994,-0.92356 -0.42592,-1.8645 -0.97967,-2.82281 -0.55292,-0.94548 -1.34336,-1.86889 -2.37133,-2.77025 -1.07595,-0.94345 -2.12732,-1.61076 -3.15411,-2.00195 -1.0328,-0.38436 -1.9938,-0.56027 -2.88298,-0.52775 -0.92777,0.035 -1.79444,0.26306 -2.60001,0.68409 -0.80472,0.43387 -1.51955,1.00717 -2.14451,1.71991 -0.8593,0.97999 -1.49662,2.04554 -1.91196,3.19664 -0.41533,1.15108 -0.61469,2.39457 -0.59809,3.73048 l -0.12619,0.14391 -2.3849,-2.09118"
           style="font-size:28px"
           id="path4111"
           inkscape:connector-curvature="0" />
        <path
           d="m 525.1823,565.29623 0.0964,-0.0969 c 0.33462,-0.20709 0.64344,-0.42698 0.92644,-0.65969 0.28304,-0.21985 0.59814,-0.50421 0.9453,-0.85308 0.55932,-0.56212 0.97337,-1.2302 1.24215,-2.00425 0.27523,-0.76765 0.45687,-1.58984 0.54493,-2.46657 l -7.68528,-7.64729 1.81298,-1.82198 10.82529,10.77178 -1.81297,1.82198 -1.59908,-1.59117 c -0.13857,1.30222 -0.36156,2.34686 -0.66896,3.13393 -0.30739,0.79992 -0.74717,1.4874 -1.31934,2.06245 -0.31503,0.31656 -0.55295,0.53628 -0.71376,0.65915 -0.15437,0.12927 -0.3956,0.31355 -0.7237,0.55285 l -1.87044,-1.8612"
           style="font-size:28px"
           id="path4113"
           inkscape:connector-curvature="0" />
        <path
           d="m 524.63137,573.07475 2.12319,-1.97307 1.81485,1.95293 -2.12319,1.97307 -1.81485,-1.95293 m -12.01605,-13.17132 1.88284,-1.74971 10.39583,11.18683 -1.88284,1.7497 -10.39583,-11.18682"
           style="font-size:28px"
           id="path4115"
           inkscape:connector-curvature="0" />
        <path
           d="m 502.99101,568.54555 c 0.28256,-0.41208 0.6145,-0.83666 0.99584,-1.27373 0.37444,-0.43113 0.73079,-0.7925 1.06904,-1.08413 1.18046,-1.01771 2.35165,-1.47386 3.51358,-1.36845 1.16193,0.10541 2.34698,0.8588 3.55514,2.26016 l 5.30282,6.15079 1.31507,-1.13377 1.41051,1.63607 -1.31507,1.13377 2.86567,3.32391 -1.94671,1.67834 -2.86567,-3.32392 -4.01769,3.4638 -1.41052,-1.63607 4.01769,-3.46379 -4.544,-5.27063 c -0.52373,-0.6075 -0.94819,-1.07192 -1.27338,-1.39327 -0.31924,-0.31446 -0.68966,-0.54868 -1.11125,-0.70268 -0.38993,-0.1452 -0.7726,-0.1703 -1.14801,-0.0753 -0.37635,0.10785 -0.8372,0.39686 -1.38256,0.86704 -0.31755,0.27376 -0.61022,0.6043 -0.87801,0.99163 -0.26184,0.39422 -0.44191,0.68786 -0.54023,0.88093 l -0.10355,0.0893 -1.50871,-1.74997"
           style="font-size:28px"
           id="path4117"
           inkscape:connector-curvature="0" />
        <path
           d="m 494.86425,584.06854 8.91624,-6.86346 c -0.57265,-0.74393 -1.18497,-1.30779 -1.83697,-1.69156 -0.64643,-0.37657 -1.30087,-0.5917 -1.96332,-0.64537 -0.64244,-0.0576 -1.28677,0.0243 -1.93301,0.24573 -0.65345,0.22695 -1.29075,0.5795 -1.91189,1.05764 -0.82337,0.6338 -1.52526,1.43289 -2.10567,2.39728 -0.58206,0.97716 -0.92773,1.76085 -1.03702,2.35108 l -0.10834,0.0834 -1.70961,-2.22093 c 0.46377,-0.81709 0.9781,-1.59833 1.54301,-2.34375 0.56493,-0.74542 1.24102,-1.42114 2.02827,-2.02714 2.00788,-1.5456 3.99215,-2.21037 5.95282,-1.9943 1.96623,0.22329 3.71937,1.33526 5.25941,3.33591 1.52335,1.97897 2.19451,3.96407 2.01347,5.95531 -0.18828,1.99677 -1.16356,3.67345 -2.92586,5.03004 -1.6323,1.25647 -3.25596,1.74717 -4.871,1.4721 -1.62225,-0.26955 -3.10888,-1.28186 -4.45989,-3.03692 l -0.85064,-1.10505 m 3.18349,0.0339 c 0.83006,1.06336 1.73749,1.68185 2.7223,1.85548 0.97758,0.17915 2.00806,-0.14824 3.09144,-0.98218 1.09061,-0.83953 1.71352,-1.83088 1.86874,-2.97405 0.14799,-1.13763 -0.10162,-2.21649 -0.74883,-3.23657 l -6.93365,5.33732"
           style="font-size:28px"
           id="path4119"
           inkscape:connector-curvature="0" />
        <path
           d="m 486.30757,596.10653 0.11295,-0.077 c 0.36761,-0.14044 0.71227,-0.29831 1.034,-0.47362 0.31934,-0.16268 0.68231,-0.38268 1.08892,-0.66001 0.65508,-0.44686 1.18742,-1.02512 1.59701,-1.73479 0.41474,-0.70216 0.74781,-1.4755 0.99924,-2.32 l -6.10938,-8.95656 2.12337,-1.44838 8.60552,12.61599 -2.12337,1.44838 -1.27118,-1.8636 c -0.38108,1.2529 -0.79661,2.23694 -1.2466,2.95212 -0.45238,0.72782 -1.01364,1.32029 -1.68378,1.77742 -0.36896,0.25165 -0.64396,0.42268 -0.82502,0.51311 -0.17593,0.0979 -0.44752,0.23352 -0.81478,0.40682 l -1.4869,-2.17984"
           style="font-size:28px"
           id="path4121"
           inkscape:connector-curvature="0" />
        <path
           d="m 484.29967,603.64335 2.45676,-1.53794 1.41461,2.25976 -2.45676,1.53794 -1.41461,-2.25976 m -9.32074,-15.19845 2.17864,-1.36383 8.10321,12.94435 -2.17863,1.36383 -8.10322,-12.94435"
           style="font-size:28px"
           id="path4123"
           inkscape:connector-curvature="0" />
        <path
           d="m 460.37384,596.88707 2.23111,-1.24842 0.79445,1.41979 c 0.1232,-0.24649 0.28682,-0.58871 0.49086,-1.02666 0.20056,-0.42556 0.41986,-0.79893 0.6579,-1.12013 0.27148,-0.39213 0.61644,-0.78359 1.03487,-1.17439 0.41399,-0.39876 0.9471,-0.78062 1.59932,-1.14558 1.20107,-0.67206 2.44172,-0.84404 3.72196,-0.51596 1.28025,0.32808 2.2653,1.10855 2.95516,2.34143 0.56524,1.01016 0.80667,1.94562 0.72431,2.80638 -0.0859,0.87315 -0.43034,1.71346 -1.03341,2.52092 -0.61103,0.81189 -1.44966,1.5997 -2.51587,2.36343 -1.06622,0.7637 -2.23375,1.54233 -3.50262,2.33589 l 0.19361,0.34601 c 0.28485,0.50904 0.61221,0.87942 0.98208,1.11114 0.36192,0.23614 0.76332,0.3562 1.20421,0.36018 0.42053,0.005 0.87131,-0.0855 1.35234,-0.27104 0.48103,-0.18562 0.96414,-0.41417 1.44934,-0.68565 0.5886,-0.32937 1.2003,-0.77609 1.8351,-1.34017 0.63926,-0.55615 1.26232,-1.19723 1.86919,-1.92324 l 0.11931,-0.0668 1.27512,2.27884 c -0.37071,0.36408 -0.92962,0.84915 -1.67673,1.45521 -0.74711,0.60603 -1.52234,1.13382 -2.3257,1.58336 -0.93857,0.52516 -1.79837,0.90182 -2.57939,1.12997 -0.78451,0.24051 -1.53589,0.31628 -2.25414,0.22731 -0.70583,-0.0855 -1.35244,-0.34514 -1.93983,-0.7789 -0.58738,-0.43379 -1.12141,-1.08019 -1.60209,-1.93921 l -5.06046,-9.04375 m 4.06703,2.03262 2.07625,3.71056 c 0.6618,-0.42254 1.43576,-0.93394 2.32187,-1.5342 0.87816,-0.59584 1.5454,-1.12064 2.00171,-1.5744 0.54191,-0.54346 0.90268,-1.12133 1.08229,-1.7336 0.18407,-0.60434 0.0869,-1.24455 -0.29136,-1.92064 -0.42727,-0.76359 -0.98061,-1.21119 -1.66003,-1.34279 -0.67497,-0.12366 -1.48571,0.0793 -2.43225,0.60897 -0.78744,0.44062 -1.42272,0.99453 -1.90583,1.66175 -0.47865,0.67516 -0.8762,1.38327 -1.19265,2.12435"
           style="font-size:28px"
           id="path4125"
           inkscape:connector-curvature="0" />
      </g>
      <g
         transform="matrix(-0.60487382,-0.79632133,0.79632133,-0.60487382,247.78978,868.18526)"
         style="font-size:40px;font-style:normal;font-weight:normal;line-height:125%;letter-spacing:0px;word-spacing:0px;fill:#000000;fill-opacity:1;stroke:none;font-family:Sans"
         id="text3962">
        <path
           d="m 542.63174,398.82271 0.13659,-2.88153 5.76197,-1.72521 0.41689,-8.79481 -5.57296,-2.2625 0.13012,-2.74497 19.98373,8.36573 -0.17089,3.60533 -20.68545,6.43796 m 8.25966,-5.32974 10.15189,-3.09116 -9.81333,-4.05121 -0.33856,7.14237"
           style="font-size:28px"
           id="path4128"
           inkscape:connector-curvature="0" />
        <path
           d="m 541.65552,413.00759 c -0.29415,-0.9032 -0.50333,-1.75377 -0.62754,-2.55171 -0.1254,-0.78892 -0.13127,-1.61257 -0.0176,-2.47095 0.14475,-1.09333 0.43567,-2.07536 0.87275,-2.94609 0.44611,-0.86955 1.03753,-1.58654 1.77423,-2.15097 0.73791,-0.57348 1.62775,-0.97513 2.66953,-1.20496 1.04178,-0.22984 2.2268,-0.25683 3.55506,-0.081 2.47578,0.32779 4.32874,1.26267 5.55887,2.80466 1.22892,1.55102 1.69564,3.44244 1.40016,5.67428 -0.11486,0.86741 -0.3493,1.70062 -0.70331,2.49962 -0.35524,0.80801 -0.7551,1.53657 -1.1996,2.18568 l -2.8327,-0.37505 0.0179,-0.13554 c 0.70827,-0.69693 1.28008,-1.4395 1.71544,-2.22771 0.43414,-0.77919 0.70326,-1.56184 0.80735,-2.34793 0.1914,-1.44573 -0.1452,-2.65335 -1.00979,-3.62287 -0.85677,-0.9593 -2.22486,-1.56336 -4.10429,-1.81219 -1.82522,-0.24166 -3.28411,-0.0211 -4.37667,0.66174 -1.08472,0.69304 -1.72518,1.78049 -1.92138,3.26236 -0.0682,0.51503 -0.0698,1.04807 -0.005,1.59913 0.065,0.55105 0.17775,1.05327 0.33838,1.50667 0.1407,0.39558 0.29343,0.76977 0.45818,1.12258 0.17379,0.35399 0.32493,0.63603 0.45341,0.84613 l -0.0179,0.13554 -2.8056,-0.37146"
           style="font-size:28px"
           id="path4130"
           inkscape:connector-curvature="0" />
        <path
           d="m 538.72427,427.38843 c -0.22695,-0.92239 -0.37303,-1.78603 -0.43823,-2.59094 -0.067,-0.796 -0.0123,-1.61786 0.1641,-2.46556 0.22475,-1.07973 0.58709,-2.03771 1.087,-2.87395 0.50884,-0.83439 1.15137,-1.50596 1.92758,-2.0147 0.77807,-0.51767 1.69504,-0.85281 2.7509,-1.00542 1.05586,-0.15261 2.23966,-0.0924 3.55139,0.18065 2.44498,0.50893 4.22418,1.57753 5.33761,3.20579 1.11155,1.63717 1.43794,3.55779 0.97917,5.76186 -0.17833,0.85663 -0.47339,1.67034 -0.88519,2.44115 -0.41369,0.7797 -0.86604,1.47689 -1.35706,2.09156 l -2.79746,-0.58231 0.0279,-0.13385 c 0.7576,-0.64297 1.38246,-1.34149 1.87459,-2.09555 0.49026,-0.74517 0.81619,-1.50591 0.9778,-2.28222 0.29718,-1.42774 0.0503,-2.65684 -0.74068,-3.68731 -0.78392,-1.01969 -2.1039,-1.72271 -3.95994,-2.10905 -1.80252,-0.37521 -3.27368,-0.26249 -4.41348,0.33815 -1.13275,0.61141 -1.85143,1.64883 -2.15605,3.11226 -0.10587,0.50862 -0.14668,1.0401 -0.12242,1.59445 0.0243,0.55433 0.0998,1.06348 0.22668,1.52747 0.11124,0.40485 0.23604,0.78926 0.37441,1.15323 0.14729,0.36581 0.27728,0.6582 0.38997,0.87718 l -0.0279,0.13385 -2.77069,-0.57674"
           style="font-size:28px"
           id="path4132"
           inkscape:connector-curvature="0" />
        <path
           d="m 540.44396,444.73924 3.15677,-10.80006 c -0.9011,-0.26339 -1.7281,-0.35793 -2.481,-0.28362 -0.74417,0.0769 -1.39963,0.28885 -1.96639,0.63598 -0.5529,0.33217 -1.02511,0.77815 -1.41663,1.33793 -0.39407,0.56852 -0.70107,1.22896 -0.92098,1.98135 -0.29151,0.99732 -0.38746,2.05656 -0.28785,3.17772 0.10581,1.13244 0.28853,1.96927 0.54816,2.51047 l -0.0384,0.13123 -2.69018,-0.78631 c -0.10701,-0.93341 -0.15204,-1.86768 -0.1351,-2.80282 0.017,-0.93515 0.16478,-1.87952 0.44351,-2.8331 0.71088,-2.4321 1.92192,-4.13874 3.6331,-5.11994 1.71994,-0.97865 3.79158,-1.11381 6.21493,-0.40548 2.39708,0.70065 4.10938,1.90858 5.13689,3.62382 1.02494,1.72397 1.22544,3.65327 0.60151,5.78792 -0.57792,1.97716 -1.60026,3.33063 -3.06702,4.06042 -1.46934,0.73852 -3.26695,0.79709 -5.39284,0.17573 l -1.33853,-0.39124 m 2.59162,-1.84914 c 1.29733,0.36969 2.39493,0.33442 3.29279,-0.10583 0.89529,-0.43153 1.53473,-1.30343 1.91831,-2.6157 0.38611,-1.32103 0.30494,-2.48902 -0.24353,-3.50396 -0.55105,-1.00622 -1.38862,-1.73058 -2.51273,-2.17309 l -2.45484,8.39858"
           style="font-size:28px"
           id="path4134"
           inkscape:connector-curvature="0" />
        <path
           d="m 534.50228,461.71663 c -1.15535,-0.44916 -2.14861,-1.02598 -2.97978,-1.73046 -0.82266,-0.70121 -1.44807,-1.48218 -1.87623,-2.34292 -0.41068,-0.80509 -0.64156,-1.65761 -0.69265,-2.55757 -0.0459,-0.88819 0.0963,-1.75704 0.42655,-2.60655 0.28732,-0.73909 0.62892,-1.37884 1.0248,-1.91925 0.39259,-0.53193 0.87932,-1.04191 1.46021,-1.52996 l -5.96366,-2.31835 0.93131,-2.39566 19.48384,7.57427 -0.9313,2.39565 -1.49092,-0.57958 c 0.2875,0.84519 0.45609,1.73217 0.50577,2.66094 0.0548,0.94055 -0.0928,1.86108 -0.4428,2.76159 -0.66711,1.71602 -1.83549,2.79713 -3.50513,3.24333 -1.66447,0.45797 -3.6478,0.23947 -5.95001,-0.65548 m 0.89731,-2.49689 c 1.71604,0.66709 3.11275,0.87268 4.19016,0.61677 1.07739,-0.25594 1.85221,-0.99131 2.32448,-2.20611 0.26749,-0.68813 0.38797,-1.43828 0.36145,-2.25047 -0.0265,-0.81221 -0.15807,-1.631 -0.3946,-2.45637 l -8.06624,-3.13572 c -0.57003,0.56072 -1.00438,1.06174 -1.30306,1.50304 -0.30198,0.44978 -0.57351,0.98476 -0.8146,1.60492 -0.51849,1.33374 -0.47279,2.54944 0.13708,3.6471 0.60988,1.09763 1.79832,1.98991 3.56533,2.67684"
           style="font-size:28px"
           id="path4136"
           inkscape:connector-curvature="0" />
        <path
           d="m 522.21218,469.72815 c 0.0917,-0.49117 0.22347,-1.01374 0.39538,-1.56772 0.16801,-0.54576 0.34769,-1.02041 0.53904,-1.42395 0.66779,-1.40829 1.55431,-2.29927 2.65954,-2.67295 1.10524,-0.37369 2.49377,-0.16416 4.1656,0.62861 l 7.33791,3.47955 0.74394,-1.56888 1.95183,0.92554 -0.74394,1.56888 3.96543,1.88036 -1.10127,2.32243 -3.96543,-1.88036 -2.27284,4.79311 -1.95184,-0.92554 2.27284,-4.79311 -6.28787,-2.98163 c -0.72473,-0.34367 -1.3008,-0.59666 -1.72819,-0.75897 -0.41917,-0.15842 -0.85268,-0.22276 -1.30053,-0.19303 -0.41534,0.025 -0.77545,0.15683 -1.08032,0.39559 -0.30055,0.25089 -0.60508,0.70164 -0.91359,1.35226 -0.17964,0.37883 -0.31356,0.79952 -0.40176,1.26208 -0.08,0.46644 -0.12584,0.80783 -0.13763,1.02417 l -0.0586,0.12354 -2.08772,-0.98998"
           style="font-size:28px"
           id="path4138"
           inkscape:connector-curvature="0" />
        <path
           d="m 514.85749,482.79537 1.25495,-2.22744 1.41746,0.7986 c -0.0231,-0.27459 -0.0616,-0.65196 -0.1154,-1.13211 -0.0503,-0.46775 -0.0575,-0.9007 -0.0215,-1.29886 0.0276,-0.47614 0.11836,-0.98996 0.27215,-1.54146 0.14586,-0.55599 0.40223,-1.15956 0.76909,-1.81071 0.67557,-1.19909 1.64529,-1.99184 2.90915,-2.37824 1.26387,-0.38641 2.51122,-0.23288 3.74208,0.46059 1.0085,0.56819 1.70165,1.24118 2.07946,2.01897 0.38126,0.79019 0.52463,1.68697 0.43011,2.69035 -0.099,1.0113 -0.40487,2.12052 -0.91759,3.32768 -0.51273,1.20713 -1.10419,2.47975 -1.77439,3.81788 l 0.34543,0.19462 c 0.50822,0.28632 0.98054,0.43212 1.41697,0.4374 0.43194,0.0132 0.83716,-0.0933 1.21566,-0.31941 0.36159,-0.21476 0.69943,-0.52658 1.01351,-0.93547 0.31406,-0.40891 0.60755,-0.85556 0.88047,-1.33995 0.33107,-0.58764 0.62076,-1.28751 0.86908,-2.09961 0.25625,-0.80765 0.45445,-1.67937 0.59462,-2.61517 l 0.0671,-0.11912 2.27509,1.2818 c -0.12696,0.50385 -0.35162,1.20898 -0.67396,2.11538 -0.32237,0.90638 -0.70948,1.7606 -1.16134,2.56265 -0.52794,0.93702 -1.06594,1.70623 -1.61398,2.30763 -0.5446,0.61379 -1.14667,1.06966 -1.80623,1.36762 -0.64715,0.29446 -1.33439,0.40943 -2.06171,0.3449 -0.72734,-0.0646 -1.51982,-0.33843 -2.37744,-0.82161 l -9.02889,-5.08691 m 4.5306,-0.38193 3.70447,2.08711 c 0.34505,-0.70531 0.7396,-1.54487 1.18365,-2.51869 0.43957,-0.9659 0.73603,-1.76135 0.88939,-2.38633 0.17974,-0.74613 0.18691,-1.42732 0.0215,-2.04359 -0.15747,-0.61181 -0.5737,-1.10785 -1.24868,-1.48813 -0.76234,-0.42951 -1.4678,-0.52358 -2.1164,-0.28223 -0.64066,0.24582 -1.22719,0.84122 -1.75959,1.78621 -0.44292,0.78614 -0.69694,1.58981 -0.76205,2.41099 -0.0572,0.82563 -0.0279,1.63719 0.0877,2.43466"
           style="font-size:28px"
           id="path4140"
           inkscape:connector-curvature="0" />
        <path
           d="m 505.02913,497.57402 1.45107,-2.12153 7.17711,4.90893 c 0.57928,0.3962 1.1441,0.73283 1.69447,1.0099 0.55788,0.28217 1.04151,0.43076 1.45089,0.44575 0.44461,0.028 0.86307,-0.0833 1.25539,-0.33396 0.39982,-0.24554 0.7927,-0.65043 1.17863,-1.21465 0.3962,-0.5793 0.66749,-1.28268 0.81384,-2.11015 0.14635,-0.82749 0.1957,-1.68267 0.14805,-2.56553 l -9.41148,-6.43718 1.45106,-2.12154 12.60508,8.62151 -1.45107,2.12153 -1.39931,-0.95709 c 0.0964,1.03766 0.0569,2.01557 -0.1183,2.93373 -0.17524,0.91813 -0.51757,1.74961 -1.02698,2.49442 -0.93137,1.36167 -2.05147,2.11943 -3.36033,2.27328 -1.30886,0.15381 -2.73442,-0.29671 -4.27667,-1.35154 l -8.18145,-5.59588"
           style="font-size:28px"
           id="path4142"
           inkscape:connector-curvature="0" />
        <path
           d="m 495.6504,510.88376 c 0.22056,-0.92394 0.48612,-1.75863 0.79669,-2.50406 0.30484,-0.73837 0.72976,-1.44398 1.27476,-2.11682 0.69417,-0.857 1.45491,-1.54278 2.28223,-2.05732 0.8344,-0.50882 1.71311,-0.81168 2.63611,-0.90856 0.92874,-0.10398 1.8974,0.0179 2.90596,0.36567 1.00856,0.34775 2.03342,0.94329 3.07457,1.78662 1.94063,1.5719 3.03312,3.33653 3.27748,5.29389 0.23861,1.96442 -0.35059,3.82134 -1.7676,5.57077 -0.55075,0.67991 -1.18563,1.26823 -1.90466,1.76495 -0.72476,0.50377 -1.44613,0.91647 -2.16409,1.23811 l -2.2204,-1.79852 0.0861,-0.10624 c 0.9679,-0.22475 1.84324,-0.55965 2.62602,-1.0047 0.77702,-0.43801 1.4151,-0.9651 1.91421,-1.58127 0.9179,-1.13323 1.26116,-2.33898 1.02977,-3.61723 -0.23005,-1.26546 -1.08166,-2.49483 -2.55484,-3.6881 -1.43069,-1.15886 -2.7902,-1.73223 -4.07852,-1.72011 -1.28698,0.0249 -2.4009,0.61817 -3.34176,1.77972 -0.327,0.4037 -0.60662,0.85752 -0.83886,1.36146 -0.23223,0.50392 -0.39818,0.99117 -0.49784,1.46175 -0.0865,0.41085 -0.15152,0.80974 -0.19516,1.19667 -0.0365,0.39265 -0.0548,0.71211 -0.0549,0.95839 l -0.0861,0.10624 -2.19916,-1.78131"
           style="font-size:28px"
           id="path4144"
           inkscape:connector-curvature="0" />
        <path
           d="m 489.25038,527.10077 7.74327,-8.16383 c -0.68114,-0.64606 -1.37354,-1.10808 -2.07719,-1.38604 -0.69704,-0.2717 -1.37693,-0.38267 -2.03968,-0.33291 -0.64359,0.0428 -1.26741,0.2237 -1.87147,0.54269 -0.61032,0.3256 -1.1852,0.77276 -1.72463,1.34149 -0.71505,0.75388 -1.28444,1.65221 -1.70819,2.69498 -0.42339,1.05563 -0.64327,1.88347 -0.65965,2.48351 l -0.0941,0.0992 -2.03351,-1.92876 c 0.33136,-0.87915 0.71824,-1.73074 1.16065,-2.55478 0.44242,-0.82406 1.00548,-1.59649 1.68916,-2.31731 1.74373,-1.83843 3.60082,-2.80304 5.57127,-2.89381 1.97707,-0.0845 3.88151,0.74196 5.71333,2.47942 1.81198,1.71863 2.78302,3.57555 2.91315,5.57076 0.12383,2.0018 -0.57948,3.8095 -2.10994,5.42311 -1.41756,1.49453 -2.94542,2.23123 -4.58358,2.21008 -1.64443,-0.0146 -3.27013,-0.78394 -4.8771,-2.30811 l -1.0118,-0.95968 m 3.15019,-0.46045 c 0.98501,0.92169 1.97742,1.39189 2.97724,1.4106 0.99354,0.0253 1.96074,-0.45803 2.9016,-1.44997 0.94713,-0.99859 1.40867,-2.07458 1.38463,-3.22799 -0.0303,-1.14682 -0.44431,-2.17388 -1.24196,-3.08118 l -6.02151,6.34854"
           style="font-size:28px"
           id="path4146"
           inkscape:connector-curvature="0" />
        <path
           d="m 473.69266,554.49377 5.63116,-4.60358 -11.36185,-13.89795 2.09581,-1.71337 11.36184,13.89795 5.63116,-4.60358 1.52299,1.86294 -13.35812,10.92053 -1.52299,-1.86294"
           style="font-size:28px"
           id="path4148"
           inkscape:connector-curvature="0" />
        <path
           d="m 456.29932,553.54574 9.23646,-6.42606 c -0.53615,-0.77065 -1.12061,-1.36334 -1.75336,-1.77807 -0.62755,-0.40727 -1.27087,-0.65366 -1.92996,-0.73918 -0.63892,-0.0885 -1.28645,-0.0377 -1.9426,0.15234 -0.66363,0.19522 -1.31717,0.51666 -1.96062,0.96433 -0.85293,0.59341 -1.59249,1.35777 -2.21868,2.29309 -0.62845,0.94798 -1.01147,1.71411 -1.14906,2.29839 l -0.11223,0.0781 -1.60066,-2.3007 c 0.50259,-0.79379 1.05395,-1.54936 1.65411,-2.2667 0.60018,-0.71735 1.30802,-1.35972 2.12355,-1.9271 2.07999,-1.4471 4.09397,-2.01553 6.04196,-1.70527 1.9532,0.31773 3.65074,1.51284 5.09264,3.58535 1.42627,2.05004 2.00104,4.06516 1.7243,6.04537 -0.28423,1.98539 -1.33914,3.61314 -3.16473,4.88328 -1.69092,1.1764 -3.33633,1.58833 -4.93624,1.23579 -1.60739,-0.34738 -3.04354,-1.43011 -4.30846,-3.2482 l -0.79642,-1.14474 m 3.17816,0.18722 c 0.77788,1.10211 1.65447,1.76359 2.62977,1.98444 0.96782,0.22603 2.01287,-0.0513 3.13517,-0.83215 1.12977,-0.78603 1.7997,-1.74622 2.0098,-2.88059 0.20261,-1.12918 0.005,-2.21881 -0.59207,-3.26888 l -7.18267,4.99718"
           style="font-size:28px"
           id="path4150"
           inkscape:connector-curvature="0" />
        <path
           d="m 441.56274,558.83394 c -0.70416,-1.20369 -0.7822,-2.48328 -0.23411,-3.83877 0.54025,-1.3509 1.67182,-2.53031 3.39474,-3.53824 0.97554,-0.5707 1.93914,-0.9813 2.8908,-1.2318 0.9484,-0.23803 1.77849,-0.38046 2.49028,-0.42727 l 1.45667,2.48998 -0.11801,0.069 c -1.00855,-0.11749 -2.03363,-0.0827 -3.07526,0.10423 -1.03702,0.19484 -1.94889,0.52238 -2.73562,0.98263 -0.97553,0.57069 -1.6466,1.17447 -2.01322,1.81134 -0.3666,0.63685 -0.352,1.29357 0.0438,1.97016 0.30377,0.51922 0.68337,0.82514 1.1388,0.91774 0.45544,0.0926 1.16322,-0.0152 2.12333,-0.32348 0.35612,-0.1133 0.81747,-0.27232 1.38407,-0.47706 0.55873,-0.20016 1.07879,-0.36712 1.56019,-0.5009 1.33598,-0.36974 2.42044,-0.40226 3.25339,-0.0976 0.82968,0.31715 1.49766,0.90843 2.00393,1.77383 0.31756,0.54283 0.50658,1.11863 0.56705,1.72742 0.0526,0.61335 -0.0388,1.24232 -0.27418,1.8869 -0.22426,0.62748 -0.61254,1.24534 -1.16485,1.85358 -0.55559,0.62068 -1.25427,1.17725 -2.09607,1.66973 -0.78672,0.46022 -1.63884,0.82673 -2.55636,1.09951 -0.92078,0.28522 -1.7292,0.44664 -2.42526,0.48427 l -1.38763,-2.37197 0.11801,-0.069 c 0.81037,0.0856 1.70356,0.033 2.67957,-0.15785 0.98062,-0.18298 1.86035,-0.50228 2.63921,-0.95791 0.81032,-0.47406 1.40272,-1.03182 1.7772,-1.67326 0.37908,-0.63361 0.38912,-1.25723 0.0301,-1.87086 -0.31757,-0.54285 -0.72604,-0.85299 -1.22542,-0.93043 -0.49151,-0.0821 -1.15765,0.007 -1.99842,0.26624 -0.46432,0.14491 -0.97585,0.31744 -1.53459,0.5176 -0.56659,0.20474 -1.04205,0.36673 -1.42637,0.48598 -1.16867,0.36688 -2.20029,0.42657 -3.09484,0.17904 -0.89915,-0.25541 -1.62947,-0.86301 -2.19097,-1.82281"
           style="font-size:28px"
           id="path4152"
           inkscape:connector-curvature="0" />
        <path
           d="m 429.01715,560.38263 c 0.37466,-0.33059 0.80026,-0.66122 1.2768,-0.9919 0.46841,-0.32661 0.90223,-0.59 1.30147,-0.79016 1.3933,-0.69855 2.64043,-0.8548 3.74142,-0.46876 1.10098,0.38603 2.06611,1.40606 2.89537,3.06008 l 3.63978,7.25977 1.55217,-0.77821 0.96816,1.93105 -1.55217,0.77821 1.96695,3.9232 -2.29771,1.15198 -1.96695,-3.9232 -4.74206,2.3775 -0.96816,-1.93105 4.74207,-2.3775 -3.11894,-6.22091 c -0.35948,-0.71702 -0.65764,-1.27105 -0.89449,-1.6621 -0.23276,-0.38291 -0.53474,-0.70052 -0.90595,-0.95284 -0.34265,-0.23605 -0.70759,-0.35386 -1.09483,-0.35343 -0.3913,0.0127 -0.90879,0.18034 -1.55248,0.50306 -0.37479,0.18791 -0.73934,0.43695 -1.09363,0.74713 -0.3502,0.31832 -0.59654,0.55908 -0.73904,0.72229 l -0.12222,0.0613 -1.03556,-2.06549"
           style="font-size:28px"
           id="path4154"
           inkscape:connector-curvature="0" />
        <path
           d="m 417.7859,569.86635 c -0.543,-1.28447 -0.45532,-2.56344 0.26305,-3.8369 0.70999,-1.26992 1.98425,-2.29351 3.8228,-3.07076 1.04101,-0.44009 2.04952,-0.72296 3.02554,-0.8486 0.97118,-0.1137 1.81271,-0.14786 2.5246,-0.10246 l 1.12329,2.65708 -0.12593,0.0532 c -0.98496,-0.24661 -2.00596,-0.3444 -3.06301,-0.29335 -1.05349,0.0594 -1.99999,0.26661 -2.83952,0.62153 -1.041,0.44008 -1.78435,0.95225 -2.23006,1.5365 -0.44569,0.58424 -0.51592,1.23736 -0.21071,1.95935 0.23425,0.55408 0.57121,0.9064 1.01089,1.05698 0.4397,0.15056 1.15547,0.13494 2.14732,-0.0469 0.36776,-0.0664 0.84577,-0.16459 1.43405,-0.29453 0.57988,-0.12641 1.11714,-0.2249 1.61177,-0.29546 1.37251,-0.19431 2.45211,-0.0867 3.23879,0.32293 0.78184,0.42154 1.36796,1.09404 1.75837,2.01752 0.24488,0.57926 0.35804,1.17464 0.33947,1.78613 -0.027,0.61502 -0.19873,1.22694 -0.51529,1.83578 -0.30333,0.59331 -0.76807,1.15591 -1.39423,1.68782 -0.63101,0.54382 -1.39565,1.00562 -2.29394,1.38539 -0.83952,0.3549 -1.7318,0.60841 -2.67684,0.76056 -0.94988,0.16406 -1.77237,0.21985 -2.46747,0.16737 l -1.07005,-2.53115 0.12593,-0.0532 c 0.79256,0.1894 1.68508,0.25243 2.67754,0.18912 0.99603,-0.055 1.9096,-0.2581 2.74073,-0.60945 0.8647,-0.36557 1.5241,-0.84224 1.9782,-1.43003 0.45764,-0.57941 0.54805,-1.19652 0.27122,-1.85133 -0.24489,-0.57928 -0.60994,-0.93953 -1.09515,-1.08074 -0.47682,-0.14478 -1.14884,-0.1427 -2.01607,0.006 -0.47914,0.0838 -1.00865,0.18891 -1.58854,0.31532 -0.58827,0.12994 -1.08065,0.22924 -1.47714,0.29791 -1.20624,0.21307 -2.23693,0.13917 -3.09208,-0.22168 -0.85869,-0.36927 -1.50453,-1.066 -1.93753,-2.09021"
           style="font-size:28px"
           id="path4156"
           inkscape:connector-curvature="0" />
      </g>
      <g
         transform="matrix(-0.56833304,-0.8227986,0.8227986,-0.56833304,236.78103,843.36795)"
         style="font-size:40px;font-style:normal;font-weight:normal;line-height:125%;letter-spacing:0px;word-spacing:0px;fill:#000000;fill-opacity:1;stroke:none;font-family:Sans"
         id="text3972">
        <path
           d="m 475.7683,385.01661 c -1.47166,-0.12023 -2.74374,-0.38874 -3.81622,-0.80555 -1.06415,-0.40701 -1.92955,-1.00811 -2.59619,-1.80329 -0.63327,-0.7559 -1.07066,-1.61467 -1.31218,-2.57632 -0.24152,-0.96167 -0.31145,-2.06477 -0.20979,-3.30931 0.10388,-1.27182 0.36247,-2.36637 0.77577,-3.28368 0.41329,-0.91732 0.97331,-1.67176 1.68007,-2.26331 0.80502,-0.67499 1.74778,-1.13296 2.82827,-1.37391 1.07975,-0.23188 2.38725,-0.28511 3.92251,-0.15971 l 12.1412,0.99175 -0.22038,2.69804 -12.27747,-1.00287 c -1.09921,-0.0898 -1.9727,-0.088 -2.62047,0.005 -0.64852,0.10248 -1.24615,0.30972 -1.7929,0.62172 -0.62313,0.35147 -1.11241,0.85563 -1.46785,1.51247 -0.35618,0.66591 -0.57359,1.48034 -0.65225,2.44329 -0.0794,0.97201 -0.002,1.81056 0.23347,2.51564 0.24413,0.7058 0.64928,1.28759 1.21545,1.74537 0.48887,0.39657 1.05894,0.69463 1.71023,0.89416 0.65962,0.20933 1.48453,0.35444 2.47472,0.43534 l 12.3456,1.00844 -0.22038,2.69805 -12.14121,-0.99175"
           style="font-size:28px"
           id="path4159"
           inkscape:connector-curvature="0" />
        <path
           d="m 463.74691,401.68876 0.59925,-2.49948 8.45569,2.02723 c 0.68248,0.16361 1.33021,0.27672 1.94319,0.33934 0.62183,0.0647 1.12665,0.0311 1.51447,-0.10087 0.42538,-0.13235 0.77664,-0.38556 1.05379,-0.75962 0.286,-0.37197 0.50869,-0.89033 0.66807,-1.55507 0.16361,-0.6825 0.16627,-1.43637 0.008,-2.26164 -0.15832,-0.82528 -0.41714,-1.64185 -0.77645,-2.4497 l -11.08813,-2.65835 0.59925,-2.49948 14.85065,3.5604 -0.59925,2.49948 -1.64859,-0.39524 c 0.46002,0.93509 0.77186,1.86279 0.93552,2.78308 0.16364,0.92028 0.14028,1.81916 -0.0701,2.69665 -0.38463,1.60426 -1.16093,2.7116 -2.32891,3.32202 -1.16799,0.61038 -2.66048,0.69777 -4.47747,0.26217 l -9.63897,-2.31092"
           style="font-size:28px"
           id="path4161"
           inkscape:connector-curvature="0" />
        <path
           d="m 477.99764,414.8806 0.96073,-2.73458 2.5153,0.88369 -0.96073,2.73458 -2.5153,-0.88369 m -16.76587,-6.06421 0.85197,-2.42501 14.40815,5.06198 -0.85197,2.42501 -14.40815,-5.06198"
           style="font-size:28px"
           id="path4163"
           inkscape:connector-curvature="0" />
        <path
           d="m 456.39439,420.81216 c 0.0772,-0.49365 0.19352,-1.01988 0.34904,-1.57868 0.15186,-0.55047 0.31749,-1.03021 0.49687,-1.43921 0.62604,-1.42734 1.48593,-2.34404 2.57968,-2.75011 1.09376,-0.40608 2.48785,-0.23752 4.1823,0.50567 l 7.43719,3.26195 0.69742,-1.5901 1.97825,0.86765 -0.69743,1.59011 4.01909,1.76277 -1.0324,2.35386 -4.01909,-1.76277 -2.13071,4.85796 -1.97824,-0.86766 2.13071,-4.85796 -6.37295,-2.79518 c -0.73454,-0.32217 -1.3178,-0.55809 -1.7498,-0.70774 -0.42365,-0.14601 -0.85886,-0.19756 -1.30565,-0.15465 -0.41442,0.0372 -0.77049,0.1796 -1.0682,0.42723 -0.29302,0.25963 -0.58415,0.71916 -0.87337,1.37858 -0.1684,0.38395 -0.28987,0.80841 -0.36441,1.27336 -0.0662,0.46859 -0.102,0.81119 -0.10742,1.02778 l -0.0549,0.12521 -2.11596,-0.92807"
           style="font-size:28px"
           id="path4165"
           inkscape:connector-curvature="0" />
        <path
           d="m 456.59898,454.35176 4.07451,-6.02505 -14.8701,-10.05607 1.51645,-2.24241 14.8701,10.05607 4.07451,-6.02506 1.99325,1.34796 -9.66547,14.29252 -1.99325,-1.34796"
           style="font-size:28px"
           id="path4167"
           inkscape:connector-curvature="0" />
        <path
           d="m 438.91166,458.2652 7.40714,-8.46999 c -0.70669,-0.61802 -1.41719,-1.05168 -2.13149,-1.30099 -0.70745,-0.24332 -1.39127,-0.32673 -2.05147,-0.25023 -0.64133,0.0688 -1.25734,0.27471 -1.84802,0.61785 -0.59667,0.34999 -1.15301,0.82001 -1.66902,1.41007 -0.68401,0.78215 -1.21665,1.70275 -1.59792,2.76179 -0.38039,1.07187 -0.56665,1.90792 -0.55878,2.50813 l -0.09,0.10291 -2.10978,-1.84503 c 0.29558,-0.89182 0.64774,-1.75834 1.05649,-2.59958 0.40877,-0.84126 0.94016,-1.63581 1.59417,-2.38366 1.66803,-1.90739 3.48463,-2.94623 5.44981,-3.11654 1.97204,-0.16431 3.90831,0.58455 5.80883,2.24658 1.87993,1.64403 2.9252,3.4602 3.13583,5.44852 0.20461,1.99517 -0.4251,3.82981 -1.88912,5.50392 -1.35603,1.55059 -2.85288,2.34841 -4.49055,2.39346 -1.64367,0.0519 -3.29913,-0.65118 -4.96637,-2.10919 l -1.04975,-0.91802 m 3.12903,-0.58734 c 1.02144,0.88114 2.03203,1.31086 3.03179,1.28917 0.99375,-0.0149 1.94063,-0.53687 2.84065,-1.56602 0.90602,-1.03603 1.32371,-2.1298 1.25309,-3.28129 -0.0766,-1.14466 -0.53177,-2.15415 -1.36543,-3.02849 l -5.7601,6.58663"
           style="font-size:28px"
           id="path4169"
           inkscape:connector-curvature="0" />
        <path
           d="m 425.29109,466.63522 c -0.92708,-1.04176 -1.25517,-2.28103 -0.98428,-3.71782 0.26409,-1.43075 1.1417,-2.80962 2.63281,-4.13662 0.8443,-0.75137 1.70836,-1.34341 2.59219,-1.77613 0.88309,-0.41985 1.66898,-0.7227 2.35767,-0.90855 l 1.91779,2.15498 -0.10213,0.0909 c -1.01196,0.0831 -2.0102,0.3187 -2.99474,0.70683 -0.97847,0.39492 -1.80814,0.89535 -2.48902,1.5013 -0.84429,0.75135 -1.38355,1.47529 -1.6178,2.1718 -0.23423,0.6965 -0.0908,1.33753 0.4303,1.9231 0.39993,0.44937 0.83226,0.67468 1.29701,0.67593 0.46476,10e-4 1.13752,-0.24365 2.01829,-0.73464 0.32689,-0.1811 0.74797,-0.42773 1.26325,-0.73987 0.50848,-0.30611 0.98556,-0.57207 1.43126,-0.79788 1.23721,-0.6252 2.29411,-0.8703 3.17071,-0.73532 0.87584,0.14784 1.64703,0.59625 2.31357,1.34522 0.41809,0.4698 0.71663,0.9972 0.89561,1.58221 0.17216,0.59104 0.20621,1.22571 0.10216,1.90398 -0.0965,0.65933 -0.35573,1.34147 -0.77768,2.04643 -0.4227,0.71779 -0.99832,1.40087 -1.72686,2.04924 -0.68088,0.60593 -1.44431,1.13281 -2.29029,1.58067 -0.84673,0.46068 -1.60763,0.7779 -2.28271,0.95165 l -1.8269,-2.05285 0.10213,-0.0909 c 0.81138,-0.0754 1.67679,-0.30263 2.59624,-0.68161 0.9255,-0.37221 1.72528,-0.85824 2.39935,-1.45811 0.7013,-0.62413 1.17248,-1.28747 1.41353,-1.99002 0.24711,-0.69577 0.13434,-1.30919 -0.33828,-1.84027 -0.4181,-0.46981 -0.87958,-0.69359 -1.38443,-0.67134 -0.49805,0.0162 -1.13374,0.23417 -1.90707,0.65396 -0.42677,0.23338 -0.89439,0.50311 -1.40287,0.80922 -0.51528,0.31214 -0.94961,0.56445 -1.30298,0.75693 -1.07373,0.5895 -2.07347,0.85085 -2.99924,0.78404 -0.93181,-0.0736 -1.76734,-0.5258 -2.50659,-1.35646"
           style="font-size:28px"
           id="path4171"
           inkscape:connector-curvature="0" />
        <path
           d="m 413.02633,470.28239 c 0.31726,-0.386 0.6848,-0.78017 1.10263,-1.18249 0.41045,-0.397 0.79682,-0.72608 1.15911,-0.98724 1.26434,-0.91142 2.4707,-1.26419 3.61909,-1.05833 1.1484,0.20587 2.26358,1.05927 3.34555,2.5602 l 4.74895,6.58785 1.40851,-1.01535 1.26318,1.75233 -1.40851,1.01534 2.56635,3.5601 -2.08504,1.50303 -2.56635,-3.5601 -4.30317,3.10201 -1.26319,-1.75233 4.30317,-3.102 -4.06938,-5.64514 c -0.46903,-0.65066 -0.85158,-1.15017 -1.14765,-1.49853 -0.29074,-0.34098 -0.63942,-0.60647 -1.04606,-0.79648 -0.37586,-0.1785 -0.7549,-0.23672 -1.13714,-0.17466 -0.38429,0.0748 -0.86849,0.32269 -1.4526,0.74376 -0.34011,0.24517 -0.66037,0.54906 -0.96077,0.91169 -0.29506,0.37 -0.49995,0.6469 -0.61465,0.83071 l -0.1109,0.0799 -1.35113,-1.87432"
           style="font-size:28px"
           id="path4173"
           inkscape:connector-curvature="0" />
        <path
           d="m 403.05083,481.11212 c -0.69481,-1.20912 -0.76293,-2.48928 -0.20435,-3.84047 0.5507,-1.34668 1.69138,-2.51728 3.42206,-3.51182 0.97994,-0.56313 1.94669,-0.96625 2.90026,-1.20937 0.95022,-0.23067 1.78139,-0.36666 2.49352,-0.40796 l 1.43732,2.5012 -0.11854,0.0681 c -1.0076,-0.12531 -2.03292,-0.0985 -3.07597,0.0804 -1.0385,0.18679 -1.95288,0.50726 -2.74315,0.96139 -0.97992,0.56312 -1.65566,1.16168 -2.0272,1.79568 -0.37152,0.63399 -0.36201,1.29081 0.0285,1.97045 0.29973,0.52156 0.67695,0.83041 1.13165,0.92654 0.45471,0.0961 1.1633,-0.006 2.12578,-0.30701 0.35698,-0.11054 0.81955,-0.26598 1.38772,-0.46633 0.56027,-0.19582 1.08161,-0.35875 1.56403,-0.48879 1.3388,-0.35938 2.42348,-0.3835 3.25405,-0.0724 0.8272,0.32358 1.49057,0.92001 1.99012,1.78932 0.31334,0.54527 0.49789,1.12252 0.55364,1.73175 0.0478,0.61375 -0.0484,1.24199 -0.28879,1.88473 -0.22912,0.62572 -0.62218,1.24055 -1.17919,1.84449 -0.56037,0.61635 -1.26335,1.1675 -2.10894,1.65344 -0.79026,0.45411 -1.6452,0.814 -2.5648,1.07966 -0.92297,0.27808 -1.73261,0.43323 -2.42894,0.46546 l -1.36921,-2.38265 0.11854,-0.0681 c 0.80969,0.0919 1.70326,0.0462 2.68072,-0.13709 0.982,-0.17537 1.86418,-0.48784 2.64655,-0.93742 0.81397,-0.46777 1.41068,-1.02091 1.79011,-1.65944 0.38398,-0.63065 0.39886,-1.25417 0.0446,-1.87057 -0.31335,-0.54529 -0.71941,-0.85859 -1.21817,-0.9399 -0.49086,-0.0859 -1.15767,-0.002 -2.00042,0.25075 -0.46544,0.14131 -0.97829,0.30987 -1.53856,0.50569 -0.56816,0.20034 -1.04486,0.35865 -1.43009,0.47491 -1.17148,0.35782 -2.20353,0.4095 -3.09614,0.15505 -0.89714,-0.26237 -1.62273,-0.87562 -2.17678,-1.83973"
           style="font-size:28px"
           id="path4175"
           inkscape:connector-curvature="0" />
      </g>
      <g
         transform="matrix(-0.90782767,-0.41934343,0.41934343,-0.90782767,499.64117,875.09305)"
         style="font-size:40px;font-style:normal;font-weight:normal;line-height:125%;letter-spacing:0px;word-spacing:0px;fill:#000000;fill-opacity:1;stroke:none;font-family:Sans"
         id="text3979">
        <path
           d="m 443.39001,391.95354 0.47034,-8.02529 2.07457,0.12158 -0.15598,2.66145 16.17342,0.94789 0.15598,-2.66145 2.07456,0.12159 -0.47034,8.02529 -2.07457,-0.12159 0.15598,-2.66145 -16.17341,-0.94788 -0.15599,2.66145 -2.07456,-0.12159"
           style="font-size:28px"
           id="path4178"
           inkscape:connector-curvature="0" />
        <path
           d="m 437.76475,418.04397 0.64823,-2.48723 8.41424,2.19297 c 0.63503,0.16548 1.25606,0.29437 1.8631,0.38667 0.60472,0.10107 1.10762,0.10498 1.5087,0.0117 0.43212,-0.10403 0.79462,-0.32038 1.08751,-0.64905 0.29288,-0.32871 0.53242,-0.85026 0.71862,-1.56465 0.18159,-0.6968 0.18679,-1.43955 0.0156,-2.22825 -0.16239,-0.78645 -0.42179,-1.59816 -0.7782,-2.43514 -0.20976,-0.0264 -0.45365,-0.0664 -0.73166,-0.12004 -0.2692,-0.0513 -0.5361,-0.11148 -0.80069,-0.18043 l -9.4594,-2.46536 0.64824,-2.48723 8.41423,2.19297 c 0.65267,0.17009 1.27811,0.30013 1.87633,0.39012 0.60472,0.10108 1.10762,0.10499 1.5087,0.0117 0.43212,-0.10403 0.79021,-0.32153 1.07429,-0.6525 0.29287,-0.3287 0.53241,-0.85025 0.71861,-1.56465 0.17699,-0.67915 0.18756,-1.40637 0.0317,-2.18167 -0.15817,-0.76649 -0.40894,-1.55712 -0.75231,-2.37187 l -11.03376,-2.87568 0.64824,-2.48723 14.77783,3.85149 -0.64824,2.48722 -1.64051,-0.42755 c 0.44156,0.94395 0.74316,1.84672 0.9048,2.70831 0.15932,0.87039 0.1252,1.74218 -0.10236,2.61537 -0.26206,1.00546 -0.69556,1.80141 -1.30051,2.38787 -0.60726,0.59524 -1.33056,0.96716 -2.1699,1.11577 0.58466,1.22613 0.95417,2.30202 1.10854,3.22766 0.16316,0.92789 0.12177,1.86372 -0.12418,2.80748 -0.42297,1.62285 -1.22836,2.68922 -2.41617,3.19913 -1.18131,0.52097 -2.65396,0.5516 -4.41794,0.0919 l -9.5917,-2.49984"
           style="font-size:28px"
           id="path4180"
           inkscape:connector-curvature="0" />
        <path
           d="m 436.15217,438.05024 c -1.09904,-0.57332 -2.02295,-1.25572 -2.77172,-2.04722 -0.74069,-0.78731 -1.27655,-1.63225 -1.60759,-2.5348 -0.31978,-0.84532 -0.45564,-1.71804 -0.40758,-2.61817 0.0519,-0.88785 0.28867,-1.73583 0.71021,-2.54394 0.36675,-0.70307 0.77654,-1.30143 1.22938,-1.7951 0.44863,-0.48559 0.98843,-0.93904 1.6194,-1.36034 l -5.67299,-2.95926 1.18876,-2.27889 18.53419,9.66816 -1.18876,2.2789 -1.41824,-0.73982 c 0.19294,0.87165 0.2631,1.77178 0.21048,2.7004 -0.0488,0.94088 -0.29657,1.83963 -0.7434,2.69625 -0.85153,1.63238 -2.13157,2.57864 -3.84011,2.83879 -1.70469,0.2724 -3.65203,-0.16258 -5.84203,-1.30496 m 1.16609,-2.38324 c 1.63239,0.85151 2.99808,1.20925 4.09707,1.07321 1.09898,-0.13607 1.94988,-0.78191 2.5527,-1.9375 0.34144,-0.65459 0.54358,-1.38698 0.60642,-2.19716 0.0628,-0.81021 0.022,-1.63849 -0.12246,-2.48485 l -7.67309,-4.00258 c -0.62816,0.49473 -1.1149,0.94501 -1.46024,1.35084 -0.34955,0.4139 -0.67819,0.91582 -0.98592,1.50575 -0.66183,1.26874 -0.74992,2.4821 -0.26428,3.6401 0.48565,1.15797 1.56891,2.17536 3.2498,3.05219"
           style="font-size:28px"
           id="path4182"
           inkscape:connector-curvature="0" />
        <path
           d="m 425.33766,439.80768 1.46559,-2.11153 17.47627,12.1301 -1.46559,2.11153 -17.47627,-12.1301"
           style="font-size:28px"
           id="path4184"
           inkscape:connector-curvature="0" />
        <path
           d="m 419.44216,458.35565 7.48868,-8.39798 c -0.70069,-0.62482 -1.40696,-1.06534 -2.11882,-1.32154 -0.70506,-0.25015 -1.38804,-0.34017 -2.04895,-0.27006 -0.64197,0.0626 -1.25994,0.26255 -1.8539,0.59996 -0.60003,0.3442 -1.16089,0.80883 -1.68258,1.39387 -0.69154,0.7755 -1.23305,1.6909 -1.62455,2.74621 -0.39074,1.06815 -0.58507,1.90235 -0.583,2.50261 l -0.091,0.10204 -2.09185,-1.86535 c 0.30419,-0.88892 0.66472,-1.752 1.08158,-2.58924 0.41689,-0.83727 0.95593,-1.62665 1.61714,-2.36814 1.6864,-1.89117 3.51296,-2.9124 5.47969,-3.06369 1.97353,-0.14524 3.90248,0.6223 5.78684,2.30263 1.86394,1.66213 2.89161,3.48832 3.083,5.47859 0.1853,1.99705 -0.46211,3.82551 -1.94225,5.4854 -1.37095,1.5374 -2.87545,2.32071 -4.51348,2.34993 -1.6441,0.036 -3.29268,-0.68306 -4.94575,-2.15712 l -1.04081,-0.92812 m 3.13455,-0.55706 c 1.01287,0.89097 2.01927,1.33045 3.01918,1.31842 0.99385,-0.005 1.94574,-0.51808 2.85567,-1.53848 0.91599,-1.02723 1.34424,-2.1169 1.28475,-3.26902 -0.0656,-1.14534 -0.51092,-2.15919 -1.33608,-3.04155 l -5.82352,6.53063"
           style="font-size:28px"
           id="path4186"
           inkscape:connector-curvature="0" />
        <path
           d="m 393.2017,469.43987 2.08749,-1.49962 5.07321,7.06194 c 0.38289,0.53296 0.77839,1.02882 1.18649,1.48758 0.40072,0.46403 0.78516,0.78827 1.15331,0.97272 0.39893,0.19597 0.81604,0.26106 1.25133,0.19527 0.43531,-0.0658 0.95275,-0.31411 1.55235,-0.74483 0.5848,-0.42013 1.06323,-0.98829 1.43531,-1.70447 0.3774,-0.70883 0.69631,-1.49906 0.95671,-2.37069 -0.14451,-0.15433 -0.3066,-0.3409 -0.48627,-0.55972 -0.17433,-0.21146 -0.34127,-0.42821 -0.50081,-0.65027 l -5.70336,-7.93913 2.08749,-1.49963 5.0732,7.06194 c 0.39353,0.54777 0.79168,1.04733 1.19447,1.49868 0.40072,0.46405 0.78515,0.78829 1.15331,0.97273 0.39893,0.19597 0.81338,0.25737 1.24336,0.18417 0.4353,-0.0658 0.95274,-0.31411 1.55234,-0.74484 0.56999,-0.40949 1.04264,-0.96226 1.41796,-1.65833 0.36791,-0.69078 0.67998,-1.45927 0.93622,-2.30548 l -6.6526,-9.26047 2.0875,-1.49963 8.91001,12.40282 -2.08749,1.49963 -0.98912,-1.37686 c -0.26321,1.00833 -0.60781,1.89558 -1.03379,2.66175 -0.43339,0.77145 -1.0165,1.42042 -1.74935,1.9469 -0.84388,0.60621 -1.68584,0.94172 -2.52589,1.00653 -0.84745,0.0701 -1.64153,-0.10576 -2.38225,-0.52756 -0.33336,1.31685 -0.73629,2.38067 -1.20877,3.19147 -0.46716,0.81816 -1.09677,1.51176 -1.88884,2.08079 -1.36205,0.97845 -2.66288,1.28448 -3.9025,0.91808 -1.24168,-0.35373 -2.39431,-1.27083 -3.45789,-2.75129 l -5.78313,-8.05018"
           style="font-size:28px"
           id="path4188"
           inkscape:connector-curvature="0" />
        <path
           d="m 379.66744,483.16612 10.35493,-4.40249 c -0.36732,-0.86397 -0.81829,-1.56361 -1.35292,-2.09892 -0.53106,-0.52694 -1.11043,-0.89962 -1.73813,-1.11805 -0.60735,-0.21718 -1.25159,-0.29983 -1.93273,-0.24793 -0.68951,0.0555 -1.39496,0.23652 -2.11633,0.54322 -0.95621,0.40655 -1.83639,1.00361 -2.64054,1.79119 -0.80894,0.79951 -1.34047,1.47118 -1.59458,2.01501 l -0.12582,0.0535 -1.09661,-2.5793 c 0.65422,-0.67431 1.34838,-1.30123 2.08249,-1.88075 0.73413,-0.57954 1.55833,-1.06366 2.47261,-1.45237 2.33186,-0.99141 4.41951,-1.13619 6.26296,-0.43432 1.84702,0.71025 3.26444,2.2271 4.25229,4.55057 0.97714,2.29829 1.12789,4.38835 0.45224,6.27019 -0.68403,1.88538 -2.04938,3.26315 -4.09604,4.13332 -1.89567,0.80595 -3.59054,0.87286 -5.08462,0.20075 -1.50245,-0.66858 -2.68697,-2.022 -3.55357,-4.06026 l -0.54563,-1.28335 m 3.07279,0.83287 c 0.5362,1.23784 1.25908,2.06452 2.16864,2.48006 0.90119,0.41908 1.98088,0.36116 3.23907,-0.17376 1.26658,-0.53851 2.11863,-1.34151 2.55615,-2.40898 0.42914,-1.06393 0.45866,-2.17089 0.0886,-3.32089 l -8.05244,3.42357"
           style="font-size:28px"
           id="path4190"
           inkscape:connector-curvature="0" />
        <path
           d="m 360.59554,480.43305 2.50383,-0.58083 1.96494,8.47039 c 0.15861,0.68365 0.34686,1.31366 0.56476,1.89001 0.21998,0.58521 0.47564,1.0218 0.76699,1.30978 0.30849,0.3214 0.69197,0.5225 1.15046,0.60328 0.46057,0.0896 1.0238,0.0572 1.68971,-0.0972 0.68367,-0.15861 1.35928,-0.49311 2.02683,-1.00351 0.66755,-0.51042 1.2824,-1.10685 1.84455,-1.78928 l -2.57668,-11.10739 2.50383,-0.58084 3.45101,14.87645 -2.50383,0.58084 -0.3831,-1.65146 c -0.63097,0.82939 -1.32154,1.52291 -2.07171,2.08057 -0.75015,0.55763 -1.56473,0.9384 -2.44374,1.14233 -1.60706,0.37278 -2.94459,0.17313 -4.01259,-0.59898 -1.06798,-0.77213 -1.8131,-2.06827 -2.23534,-3.88841 l -2.23992,-9.65571"
           style="font-size:28px"
           id="path4192"
           inkscape:connector-curvature="0" />
        <path
           d="m 347.76433,481.7477 c 0.47081,-0.1673 0.98892,-0.31569 1.55432,-0.44515 0.55634,-0.12871 1.05705,-0.21162 1.50211,-0.24873 1.55321,-0.12951 2.76884,0.18984 3.64691,0.95808 0.87808,0.76823 1.39399,2.07427 1.54774,3.91814 l 0.67485,8.093 1.73032,-0.14428 0.1795,2.15268 -1.73032,0.14429 0.36469,4.37349 -2.56142,0.21359 -0.36469,-4.37349 -5.28634,0.4408 -0.17951,-2.15268 5.28634,-0.44081 -0.57827,-6.93491 c -0.0667,-0.79932 -0.13708,-1.42453 -0.21128,-1.87565 -0.0734,-0.44205 -0.23545,-0.84926 -0.48601,-1.22165 -0.23012,-0.34667 -0.52496,-0.5919 -0.88451,-0.73569 -0.36786,-0.13396 -0.91058,-0.17102 -1.62815,-0.11118 -0.41781,0.0348 -0.84888,0.13023 -1.29319,0.28618 -0.44354,0.16503 -0.76182,0.29676 -0.95484,0.39517 l -0.13625,0.0114 -0.192,-2.30256"
           style="font-size:28px"
           id="path4194"
           inkscape:connector-curvature="0" />
        <path
           d="m 332.77219,481.06598 2.55275,0.14113 -0.0898,1.62447 c 0.23608,-0.14213 0.55758,-0.34344 0.96449,-0.60393 0.39734,-0.25189 0.78254,-0.44968 1.15561,-0.59337 0.43932,-0.18567 0.94031,-0.33141 1.50299,-0.43723 0.5632,-0.11492 1.21793,-0.15175 1.96417,-0.1105 1.37421,0.076 2.51394,0.5954 3.4192,1.5583 0.90526,0.96289 1.3189,2.14964 1.24092,3.56025 -0.0639,1.15579 -0.36119,2.07502 -0.89187,2.75771 -0.54028,0.69128 -1.28132,1.21628 -2.22314,1.575 -0.9509,0.35821 -2.08108,0.57414 -3.39054,0.64782 -1.30943,0.0736 -2.71243,0.10563 -4.20897,0.0959 l -0.0219,0.39588 c -0.0322,0.58243 0.0458,1.07055 0.23398,1.46436 0.17909,0.39329 0.45371,0.70971 0.82386,0.94927 0.35246,0.22943 0.7815,0.39464 1.2871,0.49563 0.50562,0.10097 1.036,0.16681 1.59113,0.19751 0.67346,0.0372 1.4293,-0.0123 2.26752,-0.1485 0.83772,-0.12714 1.70727,-0.33467 2.60865,-0.62258 l 0.13651,0.008 -0.14414,2.60734 c -0.50808,0.10883 -1.23989,0.21899 -2.19542,0.33049 -0.95552,0.11148 -1.89287,0.14181 -2.81204,0.091 -1.07388,-0.0594 -2.00166,-0.20195 -2.78337,-0.42772 -0.79129,-0.21721 -1.46634,-0.55577 -2.02515,-1.01568 -0.55019,-0.45034 -0.95708,-1.01598 -1.22069,-1.69692 -0.26358,-0.68097 -0.36821,-1.51288 -0.31389,-2.49575 l 0.57204,-10.34748 m 2.34521,3.89516 -0.2347,4.24547 c 0.78518,-0.002 1.71267,-0.0194 2.78248,-0.0516 1.06071,-0.0327 1.90527,-0.11833 2.53367,-0.25702 0.74873,-0.16857 1.36294,-0.46324 1.84262,-0.88402 0.47919,-0.41168 0.74017,-1.0043 0.78293,-1.77785 0.0483,-0.87367 -0.17914,-1.54806 -0.68234,-2.02317 -0.50368,-0.46602 -1.29702,-0.72896 -2.38,-0.78883 -0.90096,-0.0498 -1.73413,0.0776 -2.49952,0.38215 -0.76587,0.31366 -1.48091,0.69861 -2.14514,1.15483"
           style="font-size:28px"
           id="path4196"
           inkscape:connector-curvature="0" />
        <path
           d="m 320.04368,478.83859 c 0.49865,-0.0316 1.03759,-0.032 1.61681,-0.001 0.5703,0.029 1.07452,0.0868 1.51266,0.17337 1.52905,0.30203 2.61024,0.94296 3.24356,1.92281 0.63333,0.97984 0.77072,2.37735 0.41217,4.19254 l -1.57373,7.96715 1.70341,0.33648 -0.4186,2.1192 -1.70342,-0.33647 -0.85045,4.30549 -2.52159,-0.49809 0.85045,-4.30548 -5.20413,-1.02796 0.4186,-2.11921 5.20414,1.02796 1.34853,-6.82707 c 0.15543,-0.78688 0.25942,-1.4074 0.31196,-1.86155 0.0508,-0.44522 0.007,-0.88127 -0.13181,-1.30816 -0.12607,-0.39653 -0.34222,-0.7133 -0.64845,-0.95031 -0.31693,-0.22984 -0.8286,-0.41452 -1.53501,-0.55405 -0.41132,-0.0813 -0.85201,-0.10791 -1.32207,-0.08 -0.4718,0.0369 -0.81402,0.0761 -1.02665,0.11774 l -0.13412,-0.0265 0.44774,-2.26674"
           style="font-size:28px"
           id="path4198"
           inkscape:connector-curvature="0" />
        <path
           d="m 309.34837,494.08774 2.77794,0.82701 -0.76069,2.55519 -2.77795,-0.82702 0.7607,-2.55518 m 5.24416,-17.04018 2.46346,0.73339 -4.35743,14.63663 -2.46346,-0.73339 4.35743,-14.63663"
           style="font-size:28px"
           id="path4200"
           inkscape:connector-curvature="0" />
        <path
           d="m 294.80464,477.34337 c 1.00071,-2.27819 2.37478,-3.81996 4.12222,-4.6253 1.74748,-0.80533 3.60174,-0.7773 5.56281,0.0841 1.97778,0.86874 3.26124,2.21895 3.85038,4.05064 0.58081,1.82802 0.37086,3.88113 -0.62984,6.15932 -1.00068,2.27818 -2.37059,3.82178 -4.10971,4.63079 -1.75111,0.81367 -3.61556,0.78615 -5.59334,-0.0826 -1.96107,-0.86142 -3.23435,-2.21213 -3.81984,-4.05216 -0.58913,-1.8317 -0.38336,-3.88663 0.61732,-6.16482 m 2.4284,1.06667 c -0.79541,1.81087 -1.0309,3.3102 -0.70647,4.498 0.32079,1.19614 1.11123,2.07096 2.37132,2.62446 1.2768,0.56082 2.46413,0.55474 3.56199,-0.0183 1.08587,-0.56833 2.02652,-1.75793 2.82193,-3.56879 0.76977,-1.75246 0.99976,-3.23928 0.68997,-4.46045 -0.31344,-1.21284 -1.10438,-2.09783 -2.37283,-2.655 -1.25175,-0.54983 -2.42839,-0.53407 -3.52994,0.0473 -1.11354,0.58603 -2.05886,1.76362 -2.83597,3.53276"
           style="font-size:28px"
           id="path4202"
           inkscape:connector-curvature="0" />
        <path
           d="m 283.7577,461.27817 2.13758,1.42732 -4.8286,7.2314 c -0.38971,0.58366 -0.72002,1.15221 -0.99093,1.70563 -0.27594,0.56099 -0.41913,1.04625 -0.42955,1.45577 -0.0231,0.44489 0.0929,0.86209 0.34793,1.25158 0.24999,0.39706 0.65923,0.7854 1.22772,1.16501 0.58368,0.38973 1.29004,0.65315 2.11909,0.79027 0.82907,0.13711 1.68475,0.17692 2.56703,0.11944 l 6.33184,-9.48268 2.13758,1.42732 -8.48041,12.70042 -2.13759,-1.42732 0.94143,-1.4099 c -1.03652,0.10794 -2.01481,0.0794 -2.93487,-0.0856 -0.92003,-0.165 -1.75526,-0.49804 -2.50571,-0.99911 -1.37197,-0.91612 -2.14218,-2.02771 -2.31061,-3.33477 -0.16839,-1.30707 0.2662,-2.73756 1.30377,-4.29147 l 5.5043,-8.24334"
           style="font-size:28px"
           id="path4204"
           inkscape:connector-curvature="0" />
      </g>
      <path
         style="fill:#ffffff;fill-opacity:1;fill-rule:nonzero;stroke:none"
         d="m -6.4787655,206.88335 c 0,31.43636 -9.9450575,56.92057 -22.2129075,56.92057 -12.267851,0 -22.212908,-25.48421 -22.212908,-56.92057 0,-31.43637 9.945057,-56.92058 22.212908,-56.92058 12.26785,0 22.2129075,25.48421 22.2129075,56.92058 z"
         id="path4024"
         inkscape:connector-curvature="0" />
    </g>
    <path
       style="fill:#ffffff;fill-opacity:1;stroke:#000000;stroke-width:2.00724864;stroke-linecap:square;stroke-linejoin:miter;stroke-miterlimit:4;stroke-opacity:1;stroke-dasharray:none;stroke-dashoffset:0"
       d="M 70.353506,215.72403 382.5691,450.59832 669.20258,201.32604 C 780.64172,406.63028 709.42975,567.29157 594.73439,659.49722 429.97635,781.10902 291.90213,759.33379 161.80566,672.58631 51.844359,612.4301 -25.889693,371.15097 70.353506,215.72403 z"
       id="rect4208"
       inkscape:connector-curvature="0"
       sodipodi:nodetypes="cccccc" />
    <path
       style="fill:none;stroke:#000000;stroke-width:1.5;stroke-linecap:butt;stroke-linejoin:miter;stroke-opacity:1;marker-start:none;marker-mid:url(#Arrow1Lend);marker-end:url(#Arrow1Lend);stroke-miterlimit:4;stroke-dasharray:none"
       d="M 69.372134,214.66094 302.35779,391.36355"
       id="path4211"
       inkscape:connector-curvature="0" />
    <path
       inkscape:connector-curvature="0"
       id="path5778"
       d="M 69.273467,214.56227 256.64467,356.1217"
       style="fill:none;stroke:#000000;stroke-width:1.5;stroke-linecap:butt;stroke-linejoin:miter;stroke-opacity:1;marker-start:none;marker-mid:url(#Arrow1Lend);marker-end:url(#Arrow1Lend);stroke-miterlimit:4;stroke-dasharray:none" />
    <path
       style="fill:none;stroke:#000000;stroke-width:1.5;stroke-linecap:butt;stroke-linejoin:miter;stroke-opacity:1;marker-start:none;marker-mid:url(#Arrow1Lend);marker-end:url(#Arrow1Lend);stroke-miterlimit:4;stroke-dasharray:none"
       d="M 69.163679,214.45248 205.70704,316.96424"
       id="path5780"
       inkscape:connector-curvature="0" />
    <path
       inkscape:connector-curvature="0"
       id="path5782"
       d="m 69.071492,214.36029 93.533768,69.97343"
       style="fill:none;stroke:#000000;stroke-width:1.5;stroke-linecap:butt;stroke-linejoin:miter;stroke-opacity:1;marker-start:none;marker-mid:url(#Arrow1Lend);marker-end:url(#Arrow1Lend);stroke-miterlimit:4;stroke-dasharray:none" />
    <path
       style="fill:none;stroke:#000000;stroke-width:1.5;stroke-linecap:butt;stroke-linejoin:miter;stroke-miterlimit:4;stroke-opacity:1;stroke-dasharray:none;marker-start:none;marker-mid:url(#Arrow1Lend);marker-end:url(#Arrow1Lend)"
       d="m 80.512156,223.18314 35.311924,27.45848"
       id="path5784"
       inkscape:connector-curvature="0" />
    <g
       id="g5796">
      <path
         style="fill:none;stroke:#000000;stroke-width:1.5;stroke-linecap:butt;stroke-linejoin:miter;stroke-opacity:1;marker-start:none;marker-mid:url(#Arrow1Lend);marker-end:url(#Arrow1Lend);stroke-miterlimit:4;stroke-dasharray:none"
         d="M 69.372134,214.66094 302.35779,391.36355"
         id="path5786"
         inkscape:connector-curvature="0" />
      <path
         inkscape:connector-curvature="0"
         id="path5788"
         d="M 69.273467,214.56227 256.64467,356.1217"
         style="fill:none;stroke:#000000;stroke-width:1.5;stroke-linecap:butt;stroke-linejoin:miter;stroke-opacity:1;marker-start:none;marker-mid:url(#Arrow1Lend);marker-end:url(#Arrow1Lend);stroke-miterlimit:4;stroke-dasharray:none" />
      <path
         style="fill:none;stroke:#000000;stroke-width:1.5;stroke-linecap:butt;stroke-linejoin:miter;stroke-opacity:1;marker-start:none;marker-mid:url(#Arrow1Lend);marker-end:url(#Arrow1Lend);stroke-miterlimit:4;stroke-dasharray:none"
         d="M 69.163679,214.45248 205.70704,316.96424"
         id="path5790"
         inkscape:connector-curvature="0" />
      <path
         inkscape:connector-curvature="0"
         id="path5792"
         d="m 69.071492,214.36029 93.533768,69.97343"
         style="fill:none;stroke:#000000;stroke-width:1.5;stroke-linecap:butt;stroke-linejoin:miter;stroke-opacity:1;marker-start:none;marker-mid:url(#Arrow1Lend);marker-end:url(#Arrow1Lend);stroke-miterlimit:4;stroke-dasharray:none" />
      <path
         style="fill:none;stroke:#000000;stroke-width:1.5;stroke-linecap:butt;stroke-linejoin:miter;stroke-miterlimit:4;stroke-opacity:1;stroke-dasharray:none;marker-start:none;marker-mid:url(#Arrow1Lend);marker-end:url(#Arrow1Lend)"
         d="m 80.512156,223.18314 35.311924,27.45848"
         id="path5794"
         inkscape:connector-curvature="0" />
    </g>
    <g
       id="g5803"
       transform="matrix(-0.20135253,0.97951884,-0.97951884,-0.20135253,894.11545,176.69731)">
      <path
         inkscape:connector-curvature="0"
         id="path5805"
         d="M 69.372134,214.66094 302.35779,391.36355"
         style="fill:none;stroke:#000000;stroke-width:1.5;stroke-linecap:butt;stroke-linejoin:miter;stroke-miterlimit:4;stroke-opacity:1;stroke-dasharray:none;marker-start:none;marker-mid:url(#Arrow1Lend);marker-end:url(#Arrow1Lend)" />
      <path
         style="fill:none;stroke:#000000;stroke-width:1.5;stroke-linecap:butt;stroke-linejoin:miter;stroke-miterlimit:4;stroke-opacity:1;stroke-dasharray:none;marker-start:none;marker-mid:url(#Arrow1Lend);marker-end:url(#Arrow1Lend)"
         d="M 69.273467,214.56227 256.64467,356.1217"
         id="path5807"
         inkscape:connector-curvature="0" />
      <path
         inkscape:connector-curvature="0"
         id="path5809"
         d="M 69.163679,214.45248 205.70704,316.96424"
         style="fill:none;stroke:#000000;stroke-width:1.5;stroke-linecap:butt;stroke-linejoin:miter;stroke-miterlimit:4;stroke-opacity:1;stroke-dasharray:none;marker-start:none;marker-mid:url(#Arrow1Lend);marker-end:url(#Arrow1Lend)" />
      <path
         style="fill:none;stroke:#000000;stroke-width:1.5;stroke-linecap:butt;stroke-linejoin:miter;stroke-miterlimit:4;stroke-opacity:1;stroke-dasharray:none;marker-start:none;marker-mid:url(#Arrow1Lend);marker-end:url(#Arrow1Lend)"
         d="m 69.071492,214.36029 93.533768,69.97343"
         id="path5811"
         inkscape:connector-curvature="0" />
      <path
         inkscape:connector-curvature="0"
         id="path5813"
         d="m 80.512156,223.18314 35.311924,27.45848"
         style="fill:none;stroke:#000000;stroke-width:1.5;stroke-linecap:butt;stroke-linejoin:miter;stroke-miterlimit:4;stroke-opacity:1;stroke-dasharray:none;marker-start:none;marker-mid:url(#Arrow1Lend);marker-end:url(#Arrow1Lend)" />
    </g>
  </g>
</svg>
